<?xml version="1.0" encoding="UTF-8" standalone="no"?><!DOCTYPE svg PUBLIC "-//W3C//DTD SVG 1.1//EN" "http://www.w3.org/Graphics/SVG/1.1/DTD/svg11.dtd"><svg width="100%" height="100%" viewBox="0 0 184 58" version="1.1" xmlns="http://www.w3.org/2000/svg" xmlns:xlink="http://www.w3.org/1999/xlink" xml:space="preserve" xmlns:serif="http://www.serif.com/" style="fill-rule:evenodd;clip-rule:evenodd;stroke-linejoin:round;stroke-miterlimit:2;"><path d="M183.987,19.312l-11.629,37.972l-6.941,-5.525l11.178,-37.433l7.392,4.986Zm-107.285,29.928c-10.294,3.939 -29.877,-1.932 -27.252,-17.101c0.254,-1.285 0.563,-2.478 0.922,-3.59c1.243,-3.881 3.177,-6.657 5.223,-8.844c8.55,-9.132 19.207,-5.207 20.362,-4.895c1.463,0.397 6.999,3.715 6.989,9.027c-0.061,-0.125 -1.559,-2.545 -4.581,-3.783l0,0.004c-5.02,-1.858 -19.46,0.695 -19.911,15.027c-0.301,9.572 13.784,9.277 18.922,7.806c-0.101,1.251 -0.674,6.349 -0.674,6.349Zm52.293,0.611c-22.751,0.732 -35.216,-6.183 -37.984,-9.943c-0.329,-0.508 -0.64,-1.061 -0.179,-1.434c0.765,-0.691 7.794,-0.142 10.324,-0.661c2.514,1.851 4.079,2.98 11.667,4.082c2.73,3.176 11.063,7.284 16.172,7.956Zm27.865,-30.834c-24.434,-2.363 -56.168,22.912 -18.235,23.715c-3.726,3.512 -5.484,5.044 -7.96,7.119c-39.173,-11.458 -0.986,-37.444 19.044,-36.742c0.945,0.759 6.135,5.094 7.151,5.908Zm-144.34,30.115l-4.939,-0l4.116,-9.37l2.303,0l-1.48,9.37Zm20.078,-35.495c-0,0 -8.171,26.817 -9.065,29.709l-10.335,5.786l8.787,-29.732l10.613,-5.763Zm63.796,0l-9.021,29.682l-10.379,5.813l8.787,-29.732l10.613,-5.763Zm-86.729,-1.084l2.117,-6.488l9.41,-4.688l-3.364,12.26l-4.79,3.539c0,0 -1.456,-2.576 -2.157,-3.969c0.297,1.61 0.728,3.19 1.25,4.739l1.954,7.552l-7.181,23.634l-6.904,-5.78l6.334,-21.437l4.316,-2.847c0,-0 1.392,2.654 2.022,4.108c-0.264,-1.637 -0.643,-3.311 -1.11,-4.904l-1.897,-5.719Zm43.596,1.084l-9.034,29.715l-10.366,5.78c0,-0 7.828,-25.749 8.787,-29.732l10.613,-5.763Zm103.805,5.821l-1.412,4.647l-5.064,3.251c-0.434,-1.39 -0.949,-2.759 -1.528,-4.098c0.23,1.508 0.542,3.003 0.935,4.474l0,0.004c0.268,1.003 2.263,7.538 2.263,7.538l-4.309,13.78l-6.809,-5.702l3.615,-12.22l4.105,-2.664c0.454,1.329 0.966,2.64 1.535,3.922c-0.258,-1.444 -0.546,-2.899 -0.932,-4.312l-1.812,-6.752l0.166,-0.726c1.588,-1.142 9.247,-1.142 9.247,-1.142Zm-123.882,29.335l-4.472,-14.247l4.224,-20.231l4.8,14.905l-4.552,19.573Zm136.538,-18.844l-18.688,16.383l2.391,-11.366l21.632,-19.207l-5.335,14.19Zm-86.861,-4.115c0.074,7.508 -9.241,17.766 -23.353,9.671c-0.315,-2.319 0.758,-5.359 1.863,-7.298c9.01,9.02 19.234,2.023 18.431,-6.071c1.338,0.874 2.618,1.935 3.059,3.698Zm31.713,-5.39c0,1.22 -0.244,9.105 -0.254,9.407c-0.04,1.125 -0.552,2.067 -1.402,2.861c-1.504,1.42 -4.079,2.376 -7.009,3.064c-0.003,0.003 -0.01,0.003 -0.014,0.003c-7.394,1.526 -14.687,0.346 -15.152,1.685c0.363,-1.047 1.088,-3.986 1.809,-5.847c0.722,-1.824 19.756,0.379 22.022,-11.173Zm-64.853,7.566c0.068,-0.213 4.228,-11.759 4.228,-11.759c0.274,1.007 0.687,1.617 0.969,2.186c-2.531,2.57 -4.658,8.41 -5.197,9.573Zm62.587,-4.793c-1.074,-3.987 -7.987,-3.356 -16.904,-1.542c0.644,-2.848 1.579,-8.041 1.579,-8.041c9.126,0.234 13.696,1.417 16.036,3.274c0,0 0.004,0 0.004,0.004c2.025,1.922 0.779,4.468 -0.715,6.305Z"/><g><path d="M26.852,8.611l-0.233,1.18l-1.285,0l1.813,-7.597l0.909,0l1.813,7.597l-1.285,0l-0.233,-1.18l-1.499,-0Zm0.24,-1.213l1.02,0l-0.51,-2.586l-0.51,2.586Z" style="fill-rule:nonzero;"/><path d="M34.347,9.87c-0.397,-0 -0.738,-0.075 -1.024,-0.223c-0.286,-0.148 -0.504,-0.362 -0.656,-0.642c-0.151,-0.281 -0.227,-0.617 -0.227,-1.011l0,-0.407l1.291,-0.011l-0,0.408c-0,0.191 0.053,0.342 0.161,0.451c0.109,0.11 0.258,0.165 0.45,0.165c0.188,-0 0.333,-0.054 0.436,-0.162c0.103,-0.108 0.154,-0.256 0.154,-0.444l0,-0.664c0,-0.139 -0.039,-0.26 -0.118,-0.363c-0.078,-0.102 -0.179,-0.191 -0.302,-0.266c-0.124,-0.075 -0.292,-0.165 -0.505,-0.269c-0.014,-0.007 -0.027,-0.014 -0.039,-0.021c-0.012,-0.007 -0.025,-0.014 -0.039,-0.021l-0.068,-0.031c-0.282,-0.143 -0.522,-0.292 -0.721,-0.447c-0.198,-0.155 -0.364,-0.36 -0.496,-0.614c-0.133,-0.254 -0.199,-0.568 -0.199,-0.94l0,-0.392c0,-0.387 0.074,-0.719 0.222,-0.996c0.148,-0.277 0.363,-0.488 0.646,-0.634c0.282,-0.147 0.621,-0.22 1.018,-0.22c0.387,0 0.72,0.073 0.998,0.22c0.279,0.146 0.491,0.359 0.638,0.639c0.146,0.281 0.219,0.618 0.219,1.012l0,0.428l-1.291,0.016l0,-0.434c0,-0.195 -0.049,-0.347 -0.148,-0.457c-0.099,-0.11 -0.238,-0.165 -0.416,-0.165c-0.188,0 -0.333,0.05 -0.436,0.149c-0.103,0.1 -0.154,0.236 -0.154,0.41l-0,0.507c-0,0.143 0.037,0.266 0.112,0.371c0.075,0.104 0.169,0.193 0.282,0.264c0.113,0.071 0.271,0.158 0.473,0.258c0.038,0.018 0.078,0.037 0.118,0.058c0.04,0.021 0.081,0.042 0.123,0.063c0.006,0.003 0.013,0.007 0.018,0.01c0.005,0.004 0.011,0.007 0.018,0.011c0.289,0.153 0.523,0.295 0.7,0.425c0.178,0.131 0.329,0.315 0.455,0.552c0.125,0.237 0.188,0.539 0.188,0.909l-0,0.632c-0,0.394 -0.074,0.73 -0.222,1.011c-0.148,0.28 -0.363,0.494 -0.645,0.642c-0.283,0.148 -0.62,0.223 -1.014,0.223Z" style="fill-rule:nonzero;"/><path d="M40.705,9.87c-0.397,-0 -0.738,-0.075 -1.024,-0.223c-0.285,-0.148 -0.504,-0.362 -0.655,-0.642c-0.152,-0.281 -0.227,-0.617 -0.227,-1.011l-0,-0.407l1.29,-0.011l0,0.408c0,0.191 0.054,0.342 0.162,0.451c0.108,0.11 0.258,0.165 0.449,0.165c0.188,-0 0.334,-0.054 0.437,-0.162c0.102,-0.108 0.154,-0.256 0.154,-0.444l-0,-0.664c-0,-0.139 -0.04,-0.26 -0.118,-0.363c-0.078,-0.102 -0.179,-0.191 -0.303,-0.266c-0.124,-0.075 -0.292,-0.165 -0.504,-0.269c-0.014,-0.007 -0.027,-0.014 -0.039,-0.021c-0.013,-0.007 -0.025,-0.014 -0.039,-0.021l-0.068,-0.031c-0.283,-0.143 -0.523,-0.292 -0.721,-0.447c-0.199,-0.155 -0.364,-0.36 -0.497,-0.614c-0.132,-0.254 -0.198,-0.568 -0.198,-0.94l-0,-0.392c-0,-0.387 0.074,-0.719 0.222,-0.996c0.148,-0.277 0.363,-0.488 0.645,-0.634c0.282,-0.147 0.622,-0.22 1.019,-0.22c0.386,0 0.719,0.073 0.998,0.22c0.279,0.146 0.491,0.359 0.637,0.639c0.147,0.281 0.22,0.618 0.22,1.012l-0,0.428l-1.291,0.016l-0,-0.434c-0,-0.195 -0.05,-0.347 -0.149,-0.457c-0.099,-0.11 -0.237,-0.165 -0.415,-0.165c-0.188,0 -0.334,0.05 -0.437,0.149c-0.102,0.1 -0.154,0.236 -0.154,0.41l0,0.507c0,0.143 0.038,0.266 0.113,0.371c0.075,0.104 0.169,0.193 0.282,0.264c0.113,0.071 0.271,0.158 0.473,0.258c0.038,0.018 0.077,0.037 0.117,0.058c0.04,0.021 0.081,0.042 0.123,0.063c0.007,0.003 0.013,0.007 0.018,0.01c0.006,0.004 0.012,0.007 0.019,0.011c0.289,0.153 0.522,0.295 0.7,0.425c0.177,0.131 0.329,0.315 0.454,0.552c0.126,0.237 0.189,0.539 0.189,0.909l-0,0.632c-0,0.394 -0.075,0.73 -0.223,1.011c-0.148,0.28 -0.363,0.494 -0.645,0.642c-0.282,0.148 -0.62,0.223 -1.014,0.223Z" style="fill-rule:nonzero;"/><path d="M47.101,9.87c-0.408,-0 -0.757,-0.071 -1.048,-0.212c-0.291,-0.141 -0.513,-0.345 -0.666,-0.611c-0.153,-0.267 -0.23,-0.588 -0.23,-0.964l0,-4.18c0,-0.376 0.077,-0.699 0.23,-0.967c0.153,-0.268 0.375,-0.472 0.666,-0.611c0.291,-0.139 0.64,-0.209 1.048,-0.209c0.407,0 0.757,0.07 1.047,0.209c0.291,0.139 0.513,0.343 0.666,0.611c0.154,0.268 0.23,0.591 0.23,0.967l0,4.18c0,0.376 -0.076,0.697 -0.23,0.964c-0.153,0.266 -0.375,0.47 -0.666,0.611c-0.29,0.141 -0.64,0.212 -1.047,0.212Zm-0,-1.296c0.132,-0 0.246,-0.026 0.342,-0.079c0.096,-0.052 0.168,-0.127 0.217,-0.224c0.048,-0.098 0.073,-0.216 0.073,-0.356l0,-3.855c0,-0.136 -0.025,-0.253 -0.073,-0.351c-0.049,-0.097 -0.121,-0.172 -0.217,-0.224c-0.096,-0.052 -0.21,-0.078 -0.342,-0.078c-0.133,-0 -0.246,0.026 -0.34,0.078c-0.094,0.052 -0.165,0.127 -0.214,0.224c-0.049,0.098 -0.073,0.215 -0.073,0.351l-0,3.855c-0,0.14 0.024,0.258 0.073,0.356c0.049,0.097 0.12,0.172 0.214,0.224c0.094,0.053 0.207,0.079 0.34,0.079Z" style="fill-rule:nonzero;"/><path d="M53.438,9.87c-0.383,-0 -0.71,-0.076 -0.982,-0.228c-0.272,-0.151 -0.48,-0.372 -0.624,-0.66c-0.145,-0.29 -0.217,-0.638 -0.217,-1.046l-0,-3.887c-0,-0.407 0.072,-0.756 0.217,-1.045c0.144,-0.289 0.352,-0.509 0.624,-0.661c0.272,-0.151 0.599,-0.227 0.982,-0.227c0.384,0 0.712,0.076 0.985,0.227c0.273,0.152 0.482,0.373 0.624,0.664c0.143,0.291 0.215,0.64 0.215,1.047l-0,0.612l-1.312,-0l0,-0.612c0,-0.128 -0.019,-0.24 -0.057,-0.334c-0.038,-0.094 -0.097,-0.166 -0.175,-0.217c-0.078,-0.05 -0.172,-0.076 -0.28,-0.076c-0.104,0 -0.195,0.025 -0.271,0.073c-0.077,0.049 -0.135,0.121 -0.175,0.215c-0.04,0.094 -0.06,0.205 -0.06,0.334l-0,3.887c-0,0.129 0.02,0.24 0.06,0.332c0.04,0.093 0.098,0.163 0.175,0.212c0.076,0.049 0.167,0.073 0.271,0.073c0.112,-0 0.206,-0.024 0.283,-0.073c0.076,-0.049 0.134,-0.119 0.172,-0.212c0.038,-0.092 0.057,-0.205 0.057,-0.337l0,-0.611l1.312,-0l-0,0.611c-0,0.408 -0.072,0.757 -0.215,1.048c-0.142,0.291 -0.351,0.512 -0.624,0.663c-0.273,0.152 -0.601,0.228 -0.985,0.228Z" style="fill-rule:nonzero;"/><rect x="57.832" y="2.194" width="1.296" height="7.597"/><path d="M63.217,8.611l-0.233,1.18l-1.285,0l1.813,-7.597l0.909,0l1.813,7.597l-1.285,0l-0.233,-1.18l-1.499,-0Zm0.239,-1.213l1.021,0l-0.511,-2.586l-0.51,2.586Z" style="fill-rule:nonzero;"/><path d="M70.011,9.792c-0.131,-0.037 -0.253,-0.087 -0.365,-0.15c-0.272,-0.151 -0.48,-0.372 -0.625,-0.66c-0.144,-0.29 -0.216,-0.638 -0.216,-1.046l-0,-3.887c-0,-0.407 0.072,-0.756 0.216,-1.045c0.145,-0.289 0.353,-0.509 0.625,-0.661c0.271,-0.151 0.599,-0.227 0.982,-0.227c0.383,0 0.712,0.076 0.985,0.227c0.273,0.152 0.481,0.373 0.624,0.664c0.143,0.291 0.214,0.64 0.214,1.047l0,0.612l-1.311,-0l0,-0.612c0,-0.128 -0.019,-0.24 -0.058,-0.334c-0.038,-0.094 -0.096,-0.166 -0.174,-0.217c-0.079,-0.05 -0.172,-0.076 -0.28,-0.076c-0.105,0 -0.195,0.025 -0.272,0.073c-0.077,0.049 -0.135,0.121 -0.175,0.215c-0.04,0.094 -0.06,0.205 -0.06,0.334l0,3.887c0,0.129 0.02,0.24 0.06,0.332c0.04,0.093 0.098,0.163 0.175,0.212c0.077,0.049 0.167,0.073 0.272,0.073c0.112,-0 0.205,-0.024 0.282,-0.073c0.077,-0.049 0.134,-0.119 0.172,-0.212c0.039,-0.092 0.058,-0.205 0.058,-0.337l0,-0.611l1.311,-0l0,0.611c0,0.408 -0.071,0.757 -0.214,1.048c-0.143,0.291 -0.351,0.512 -0.624,0.663c-0.171,0.095 -0.364,0.16 -0.577,0.196l-0,0.291c0.191,0.037 0.346,0.103 0.462,0.198c0.19,0.155 0.284,0.391 0.284,0.708c0,0.324 -0.104,0.565 -0.313,0.723c-0.209,0.159 -0.529,0.238 -0.961,0.238c-0.293,0 -0.554,-0.031 -0.784,-0.094l0.23,-0.82c0.118,0.049 0.249,0.073 0.392,0.073c0.122,-0 0.212,-0.017 0.272,-0.05c0.059,-0.033 0.088,-0.084 0.088,-0.154c0,-0.077 -0.05,-0.134 -0.151,-0.172c-0.083,-0.032 -0.2,-0.05 -0.352,-0.056l-0.192,-0.002l0,-0.929Z" style="fill-rule:nonzero;"/><path d="M76.54,8.611l-0.233,1.18l-1.285,0l1.813,-7.597l0.909,0l1.813,7.597l-1.285,0l-0.233,-1.18l-1.499,-0Zm0.239,-1.213l1.021,0l-0.51,-2.586l-0.511,2.586Zm2.099,-7.126c-0,0.442 -0.075,0.776 -0.225,1.003c-0.15,0.226 -0.369,0.339 -0.658,0.339c-0.063,0 -0.125,-0.005 -0.188,-0.015c-0.063,-0.011 -0.125,-0.026 -0.186,-0.047c-0.061,-0.021 -0.122,-0.049 -0.185,-0.084l-0.042,-0.018c-0.011,-0.005 -0.019,-0.012 -0.026,-0.018c-0.063,-0.035 -0.124,-0.061 -0.183,-0.079c-0.059,-0.017 -0.117,-0.026 -0.173,-0.026c-0.062,0 -0.105,0.015 -0.13,0.044c-0.024,0.03 -0.036,0.078 -0.036,0.144l-0,0.115l-1.046,0l0,-0.277c0,-0.414 0.075,-0.728 0.225,-0.94c0.15,-0.213 0.369,-0.319 0.659,-0.319c0.107,0 0.206,0.011 0.295,0.034c0.088,0.023 0.175,0.053 0.258,0.091l0.011,0.006c0.009,0.006 0.019,0.01 0.029,0.014l0.009,0.003c0.011,0.003 0.02,0.008 0.03,0.014c0.066,0.031 0.123,0.055 0.172,0.071c0.049,0.015 0.098,0.023 0.147,0.023c0.066,-0 0.114,-0.02 0.146,-0.06c0.031,-0.04 0.047,-0.098 0.047,-0.175l-0,-0.115l1.05,-0l-0,0.272Z" style="fill-rule:nonzero;"/><path d="M84.071,9.87c-0.407,-0 -0.756,-0.071 -1.047,-0.212c-0.291,-0.141 -0.513,-0.345 -0.666,-0.611c-0.154,-0.267 -0.23,-0.588 -0.23,-0.964l-0,-4.18c-0,-0.376 0.076,-0.699 0.23,-0.967c0.153,-0.268 0.375,-0.472 0.666,-0.611c0.291,-0.139 0.64,-0.209 1.047,-0.209c0.408,0 0.757,0.07 1.048,0.209c0.291,0.139 0.513,0.343 0.666,0.611c0.153,0.268 0.23,0.591 0.23,0.967l0,4.18c0,0.376 -0.077,0.697 -0.23,0.964c-0.153,0.266 -0.375,0.47 -0.666,0.611c-0.291,0.141 -0.64,0.212 -1.048,0.212Zm0,-1.296c0.133,-0 0.247,-0.026 0.343,-0.079c0.095,-0.052 0.168,-0.127 0.216,-0.224c0.049,-0.098 0.074,-0.216 0.074,-0.356l-0,-3.855c-0,-0.136 -0.025,-0.253 -0.074,-0.351c-0.048,-0.097 -0.121,-0.172 -0.216,-0.224c-0.096,-0.052 -0.21,-0.078 -0.343,-0.078c-0.132,-0 -0.245,0.026 -0.339,0.078c-0.094,0.052 -0.166,0.127 -0.214,0.224c-0.049,0.098 -0.074,0.215 -0.074,0.351l0,3.855c0,0.14 0.025,0.258 0.074,0.356c0.048,0.097 0.12,0.172 0.214,0.224c0.094,0.053 0.207,0.079 0.339,0.079Z" style="fill-rule:nonzero;"/></g></svg>