<?xml version="1.0" encoding="UTF-8" standalone="no"?><!DOCTYPE svg PUBLIC "-//W3C//DTD SVG 1.1//EN" "http://www.w3.org/Graphics/SVG/1.1/DTD/svg11.dtd"><svg width="100%" height="100%" viewBox="0 0 1254 305" version="1.1" xmlns="http://www.w3.org/2000/svg" xmlns:xlink="http://www.w3.org/1999/xlink" xml:space="preserve" xmlns:serif="http://www.serif.com/" style="fill-rule:evenodd;clip-rule:evenodd;stroke-linejoin:round;stroke-miterlimit:2;"><g id="demoscene"><path id="po8J7s0cr" d="M0,155l0,-39l21.9,-0l0.3,2.8c0.2,2.1 0.9,2.8 3.1,3l2.8,0.3l-0.6,27.4l-2.7,0.3c-2.2,0.3 -2.8,0.9 -2.8,2.8c-0,2.4 -0,2.4 -11,2.4l-11,-0Zm22,-6l-0,-27l-17,-0l-0,27l17,-0Z" style="fill-rule:nonzero;"/><path id="p12VztvBZR" d="M41,155l-0,-39l23,-0l-0,6l-17,-0l-0,11l5.5,-0c5.2,-0 5.5,0.1 5.5,2.5c-0,2.4 -0.3,2.5 -5.5,2.5l-5.5,-0l-0,11l17,-0l-0,6l-23,-0Z" style="fill-rule:nonzero;"/><path id="p38xVw7u7" d="M75,155l-0,-39l39,-0l-0,39l-6,-0l-0,-33l-11,-0l-0,33l-6,-0l-0,-33l-11,-0l-0,33l-5,-0Z" style="fill-rule:nonzero;"/><path id="p12WU7BiU2" d="M128,155l-0,-39l28,-0l-0,39l-28,-0Zm22,-6l-0,-27l-16,-0l-0,27l16,-0Z" style="fill-rule:nonzero;"/><path id="p5OXvqETY" d="M170,155l-0,-6l16,-0l-0,-11l-16,-0l-0,-22l22,-0l-0,6l-17,-0l-0,11l17,-0l-0,22l-22,-0Z" style="fill-rule:nonzero;"/><path id="poAUVlcwB" d="M205,155l-0,-39l23,-0l-0,6l-17,-0l-0,27l17,-0l-0,6l-23,-0Z" style="fill-rule:nonzero;"/><path id="p1BTHJvMrG" d="M241,155l-0,-39l23,-0l-0,6l-17,-0l-0,11l5.5,-0c5.2,-0 5.5,0.1 5.5,2.4c-0,2.3 -0.4,2.5 -5.2,2.8l-5.3,0.3l-0.3,5.3l-0.3,5.2l17.1,-0l-0,6l-23,-0Z" style="fill-rule:nonzero;"/><path id="p1HHHnW65Q" d="M275,155l-0,-39l28,-0l-0,39l-6,-0l-0,-33l-17,-0l-0,33l-5,-0Z" style="fill-rule:nonzero;"/><path id="pHpiq1l0l" d="M316,155l-0,-39l23,-0l-0,6l-17,-0l-0,11l5.5,-0c5.2,-0 5.5,0.1 5.5,2.4c-0,2.3 -0.4,2.5 -5.2,2.8l-5.3,0.3l-0.3,5.3l-0.3,5.2l17.1,-0l-0,6l-23,-0Z" style="fill-rule:nonzero;"/></g><g id="codebar"><path id="piZvwM1wF" d="M0,100l0,-100l11,0l-0,100l-11,-0Z" style="fill-rule:nonzero;"/><path id="p1HeMzaIWr" d="M22.7,99.3c-0.4,-0.3 -0.7,-22.8 -0.7,-50l-0,-49.3l6,0l-0,100l-2.3,-0c-1.3,-0 -2.7,-0.3 -3,-0.7Z" style="fill-rule:nonzero;"/><path id="pOhTI2z6R" d="M41,100l-0,-100l6,0l-0,100l-6,-0Z" style="fill-rule:nonzero;"/><path id="pzesMva82" d="M58,100l-0,-100l6,0l-0,100l-6,-0Z" style="fill-rule:nonzero;"/><path id="pQgvO4UAf" d="M75,100l-0,-100l5,0l-0,100l-5,-0Z" style="fill-rule:nonzero;"/><path id="p1EZTfuL0v" d="M86,100l-0,-100l17,0l-0,100l-17,-0Z" style="fill-rule:nonzero;"/><path id="pXzr9TqcM" d="M108,100l-0,-100l6,0l-0,100l-6,-0Z" style="fill-rule:nonzero;"/><path id="pSI2ZUDa8" d="M128,100.1l-0,-100.1l17,0l-0.2,49.7l-0.3,49.8l-8.2,0.3l-8.3,0.3Z" style="fill-rule:nonzero;"/><path id="p9p5FlkkY" d="M150,100l-0,-100l6,0l-0,100l-6,-0Z" style="fill-rule:nonzero;"/><path id="pzfPd1feu" d="M170,100.1l-0,-100.1l11,0l-0.2,49.8l-0.3,49.7l-5.2,0.3l-5.3,0.3Z" style="fill-rule:nonzero;"/><path id="pDkWFEx8t" d="M186.7,99.3c-0.4,-0.3 -0.7,-22.8 -0.7,-50l-0,-49.3l6,0l-0,100l-2.3,-0c-1.3,-0 -2.7,-0.3 -3,-0.7Z" style="fill-rule:nonzero;"/><path id="pHFyKNFs8" d="M205.7,99.3c-0.4,-0.3 -0.7,-22.8 -0.7,-50l-0,-49.3l12,0l-0,100l-5.3,-0c-3,-0 -5.7,-0.3 -6,-0.7Z" style="fill-rule:nonzero;"/><path id="p1EkXWLV8K" d="M222.7,99.3c-0.4,-0.3 -0.7,-22.8 -0.7,-50l-0,-49.3l6,0l-0,100l-2.3,-0c-1.3,-0 -2.7,-0.3 -3,-0.7Z" style="fill-rule:nonzero;"/><path id="p5gUpC3UX" d="M241,100l-0,-100l6,0l-0,100l-6,-0Z" style="fill-rule:nonzero;"/><path id="pSfmHoRBa" d="M258,100l-0,-100l6,0l-0,100l-6,-0Z" style="fill-rule:nonzero;"/><path id="p1HM0q9mE1" d="M275,100l-0,-100l5,0l-0,100l-5,-0Z" style="fill-rule:nonzero;"/><path id="p126mCzGtq" d="M291,100l-0,-100l12,0l-0,100l-12,-0Z" style="fill-rule:nonzero;"/><path id="pLSGCPFmD" d="M316,100l-0,-100l6,0l-0,100l-6,-0Z" style="fill-rule:nonzero;"/><path id="p66op8hJl" d="M333,100l-0,-100l6,0l-0,100l-6,-0Z" style="fill-rule:nonzero;"/></g><g id="momentum"><path id="pA7Jm4cgU" d="M840.058,264.417c0,-39.162 0.203,-40.582 4.059,-40.582c3.449,-0 4.058,1.42 4.058,8.116l-0,8.117l16.233,-0l-0,16.233l24.349,-0l0,-16.233l16.233,-0l0,-8.117c0,-6.696 0.609,-8.116 4.059,-8.116c3.855,-0 4.058,1.42 4.058,40.582l-0,40.583l24.349,0l0,-113.631l-24.349,-0l-0,16.233l-16.233,-0l-0,16.233l-16.233,-0l-0,8.116c-0,6.697 -0.609,8.117 -4.058,8.117c-3.45,-0 -4.059,-1.42 -4.059,-8.117l0,-8.116l-16.233,-0l0,-16.233l-16.233,-0l0,-16.233l-24.349,-0l-0,113.631l24.349,0l0,-40.583Z" style="fill-rule:nonzero;"/><path id="pnVQbIUdb" d="M783.243,305l-0,-16.233l16.233,-0l-0,-97.398l-24.35,-0l0,97.398l-40.582,-0l-0,-97.398l-24.35,-0l0,97.398l16.233,-0l0,16.233l56.816,0Z" style="fill-rule:nonzero;"/><path id="pkeeb6W8U" d="M661.495,305l0,-97.398l32.466,-0l0,-16.233l-89.281,-0l-0,16.233l32.466,-0l-0,97.398l24.349,0Z" style="fill-rule:nonzero;"/><path id="pTGBa7oV0" d="M507.282,264.417c-0,-39.162 0.202,-40.582 4.058,-40.582c3.449,-0 4.058,1.42 4.058,8.116l0,8.117l16.233,-0l0,16.233l16.233,-0l0,16.233l16.233,-0l0,32.466l24.35,0l-0,-113.631l-24.35,-0l0,32.466c0,31.046 -0.203,32.466 -4.058,32.466c-3.45,-0 -4.058,-1.42 -4.058,-8.117l-0,-8.116l-16.233,-0l-0,-16.233l-16.233,-0l-0,-16.233l-16.233,-0l-0,-16.233l-24.35,-0l0,113.631l24.35,0l-0,-40.583Z" style="fill-rule:nonzero;"/><path id="pK91sTZi3" d="M466.699,305l0,-16.233l-64.932,-0l-0,-32.466l48.699,-0l0,-16.233l-48.699,-0l-0,-32.466l64.932,-0l0,-16.233l-89.282,-0l0,113.631l89.282,0Z" style="fill-rule:nonzero;"/><path id="p1Cx09N4fV" d="M263.786,264.417c0,-39.162 0.203,-40.582 4.059,-40.582c3.449,-0 4.058,1.42 4.058,8.116l-0,8.117l16.233,-0l-0,16.233l24.349,-0l0,-16.233l16.233,-0l0,-8.117c0,-6.696 0.609,-8.116 4.059,-8.116c3.855,-0 4.058,1.42 4.058,40.582l-0,40.583l24.349,0l0,-113.631l-24.349,-0l-0,16.233l-16.233,-0l-0,16.233l-16.233,-0l-0,8.116c-0,6.697 -0.609,8.117 -4.058,8.117c-3.45,-0 -4.059,-1.42 -4.059,-8.117l0,-8.116l-16.233,-0l0,-16.233l-16.233,-0l0,-16.233l-24.349,-0l-0,113.631l24.349,0l0,-40.583Z" style="fill-rule:nonzero;"/><path id="pJdyzsrYh" d="M24.35,264.417c-0,-39.162 0.202,-40.582 4.058,-40.582c3.449,-0 4.058,1.42 4.058,8.116l0,8.117l16.233,-0l0,16.233l24.35,-0l-0,-16.233l16.233,-0l-0,-8.117c-0,-6.696 0.608,-8.116 4.058,-8.116c3.855,-0 4.058,1.42 4.058,40.582l0,40.583l24.35,0l-0,-113.631l-24.35,-0l0,16.233l-16.233,-0l0,16.233l-16.233,-0l0,8.116c0,6.697 -0.609,8.117 -4.058,8.117c-3.45,-0 -4.058,-1.42 -4.058,-8.117l-0,-8.116l-16.233,-0l-0,-16.233l-16.233,-0l-0,-16.233l-24.35,-0l0,113.631l24.35,0l-0,-40.583Z" style="fill-rule:nonzero;"/><path d="M133.922,207.602l0,81.165l16.233,-0l0,16.233l56.816,0l-0,-16.233l16.233,-0l-0,-81.165l-16.233,-0l-0,-16.233l-56.816,-0l0,16.233l-16.233,-0Zm24.35,-0l40.582,-0l0,81.165l-40.582,-0l-0,-81.165Z"/></g><g id="_08" serif:id="08"><path id="psuIX8ITR" d="M994.272,288.767c-0,-14.813 0.406,-16.233 4.058,-16.233c3.653,-0 4.058,1.42 4.058,16.233l0,16.233l24.35,0l-0,-32.466l16.233,-0l-0,-16.233l-16.233,-0l-0,-16.233l16.233,-0l-0,-16.233l-16.233,-0l-0,-32.466l-24.35,-0l0,16.233c0,14.813 -0.405,16.233 -4.058,16.233c-3.652,-0 -4.058,-1.42 -4.058,-16.233l-0,-16.233l-24.35,-0l0,32.466l-16.233,-0l0,16.233l16.233,-0l0,16.233l-16.233,-0l0,16.233l16.233,-0l0,32.466l24.35,0l-0,-16.233Zm-0,-40.583c-0,-6.696 0.609,-8.116 4.058,-8.116c3.45,-0 4.058,1.42 4.058,8.116c0,6.697 -0.608,8.117 -4.058,8.117c-3.449,-0 -4.058,-1.42 -4.058,-8.117Z" style="fill:#d62020;fill-rule:nonzero;"/><path d="M1132.46,191.369l0,16.233l16.233,-0l0,81.165l-16.233,-0l0,16.233l-56.816,0l0,-16.233l-16.233,-0l0,-81.165l16.233,-0l0,-16.233l56.816,-0Zm-14.204,91.311l0,-68.991l-28.408,0l0,68.991l28.408,-0Z" style="fill:#d62020;"/><path d="M1180.95,207.602l0,-16.233l56.816,-0l-0,16.233l16.233,-0l0,32.466l-16.233,-0l-0,16.233l16.233,-0l0,32.466l-16.233,-0l-0,16.233l-56.816,0l0,-16.233l-16.233,-0l0,-32.466l16.233,-0l0,-16.233l-16.233,-0l0,-32.466l16.233,-0Zm42.612,54.625l-28.408,-0l0,20.291l28.408,0l0,-20.291Zm0,-48.753l-28.408,-0l0,20.291l28.408,-0l0,-20.291Z" style="fill:#d62020;"/></g></svg>