<?xml version="1.0" encoding="UTF-8" standalone="no"?><!DOCTYPE svg PUBLIC "-//W3C//DTD SVG 1.1//EN" "http://www.w3.org/Graphics/SVG/1.1/DTD/svg11.dtd"><svg width="100%" height="100%" viewBox="0 0 1254 305" version="1.1" xmlns="http://www.w3.org/2000/svg" xmlns:xlink="http://www.w3.org/1999/xlink" xml:space="preserve" xmlns:serif="http://www.serif.com/" style="fill-rule:evenodd;clip-rule:evenodd;stroke-linejoin:round;stroke-miterlimit:2;"><g id="momentum"><rect x="1000" y="286" width="19" height="19"/><path d="M1225.5,181.681l-0,-8.681l-38,0l-0,8.681l-9.045,-0l-0,10.319l-9.955,-0l-0,38l9.5,-0l-0,8.5l-9.5,-0l-0,9.5l-9.5,-0l-0,38l9.5,0l-0,9.5l9.5,-0l-0,9.5l57,-0l-0,-9.5l9.5,-0l-0,-9.5l9.5,0l-0,-38l-9.5,-0l-0,-9.5l-9.5,-0l-0,-8.5l9.5,-0l-0,-38l-9.76,-0l0,-10.319l-9.24,-0Zm-38,94.819l-0,9.5l38,0l-0,-9.5l9.5,0l-0,-19l-9.5,-0l-0,-9l-38,0l-0,9l-9.5,-0l-0,19l9.5,0Zm9.955,-75.819l-9.955,-0l-0,16.319l9.955,-0l-0,12.5l18.285,0l0,-12.5l9.76,-0l-0,-16.319l-9.76,-0l0,-8.681l-18.285,-0l-0,8.681Z"/><path id="pDOqYloOm" d="M0,305l0,-132l10.3,0.3l10.2,0.299l0.3,9.286l0.3,9.186l9.9,0l-0,8.887l5.3,0.299l5.2,0.3l0.3,4.792l0.3,4.693l19.8,0l0.3,-4.693l0.3,-4.792l4.8,-0.3l4.7,-0.299l-0,-8.887l11,0l-0,-18.971l20,-0l-0,131.8l-20,0l-0.2,-42.136l-0.3,-42.236l-10,-0l-0.3,4.793l-0.3,4.693l-9.9,-0l-0,17.972l-20,0l-0,-17.972l-11,-0l-0,-9.985l-10,-0l-0.2,42.236l-0.3,42.136l-10.2,0.299l-10.3,0.3Z" style="fill-rule:nonzero;"/><path id="pJFXLKIzV" d="M145,305l-0,-9.985l-11,0l-0,-8.986l-10,-0l-0,-93.858l10,-0l-0,-8.887l5.3,-0.299l5.2,-0.3l0.3,-4.693l0.3,-4.792l61.9,-0l-0,9.985l10,-0l-0,8.986l11,-0l-0,93.858l-11,-0l-0,8.986l-10,0l-0,9.985l-62,-0Zm51.2,-23.664l0.3,-4.793l5.3,-0.299l5.2,-0.3l-0,-73.688l-5.2,-0.3l-5.3,-0.299l-0.3,-4.693l-0.3,-4.793l-40.9,-0l-0,9.985l-10,-0l-0,73.888l10,-0l-0,9.985l40.9,-0l0.3,-4.693Z" style="fill-rule:nonzero;"/><path id="pfauUJ3DH" d="M248,305l-0,-131.8l21,-0l-0,18.971l11,-0l-0,8.886l4.8,0.3l4.7,0.3l0.3,4.792l0.3,4.693l19.9,0l-0,-4.393c-0,-4.893 0.8,-5.592 7.1,-5.592l3.9,0l-0,-8.986l10,-0l-0,-18.971l21,-0l-0,131.8l-21,-0l-0,-84.871l-10,-0l-0,9.984l-10,0l-0,17.973l-21,0l-0,-17.873l-5.2,-0.299l-5.3,-0.3l-0.3,-4.693l-0.3,-4.792l-9.9,-0l-0,84.871l-21,-0Z" style="fill-rule:nonzero;"/><path id="pvrPjan1X" d="M373,305l-0,-131.8l103,-0l-0,18.971l-83,-0l0.2,18.772l0.3,18.671l31.3,0.3l31.2,0.199l-0,17.973l-30.2,0c-16.7,0 -30.9,0.4 -31.6,0.799c-0.9,0.699 -1.2,5.092 -1,18.772l0.3,17.873l41.3,0.299l41.2,0.2l-0,18.971l-103,-0Z" style="fill-rule:nonzero;"/><path id="pB4N9G5eH" d="M497,304.9l-0,-131.8l20,-0l-0,27.858l5.3,0.299l5.2,0.3l0.3,4.792l0.3,4.693l9.9,0l-0,8.887l5.3,0.299l5.2,0.3l1,8.986l4.8,0.3l4.7,0.299l-0,8.887l10,-0l-0,8.986l10,0l0.2,-37.143l0.3,-37.244l10.3,-0.299l10.2,-0.3l-0,132l-10.2,-0.3l-10.3,-0.299l-0.6,-27.359l-9.4,-0.599l-0.3,-4.693l-0.3,-4.792l-9.9,-0l-0,-8.987l-10.9,0l-0.3,-4.693l-0.3,-4.792l-4.7,-0.3l-4.8,-0.299l-0,-8.887l-10,-0l-0,-8.986l-11,-0l-0,74.886l-20,0Z" style="fill-rule:nonzero;"/><path id="ppJ9AJAVm" d="M662,305l-0,-112.829l-41,-0l-0,-18.971l51.8,0.199l51.7,0.3l0.3,9.286l0.3,9.186l-42.1,-0l-0,112.829l-21,-0Z" style="fill-rule:nonzero;"/><path id="p14i6IDA84" d="M765.8,300.307l-0.3,-4.793l-4.7,-0.299l-4.8,-0.3l-0,-8.886l-11,-0l-0,-112.929l10.3,0.299l10.2,0.3l0.3,51.222l0.2,51.123l9.9,-0l0.3,4.793l0.3,4.693l41,-0l0.3,-4.693l0.3,-4.793l9.9,-0l-0,-102.944l10.3,0.299l10.2,0.3l0.3,56.215l0.2,56.115l-10,-0l-0,8.986l-11,0l-0,9.985l-61.9,-0l-0.3,-4.693Z" style="fill-rule:nonzero;"/><path id="p1hk9kB0e" d="M869.5,303.802c-0.3,-0.699 -0.4,-30.254 -0.3,-65.701l0.3,-64.402l10.3,-0.3l10.2,-0.299l-0,19.071l10,-0l-0,8.886l5.3,0.3l5.2,0.3l0.3,4.792l0.3,4.693l19.8,0l0.3,-4.693l0.3,-4.792l5.3,-0.3l5.2,-0.3l-0,-8.886l10,-0l-0,-18.971l21,-0l-0,131.8l-21,-0l-0,-84.871l-10,-0l-0,9.984l-11,0l-0,17.973l-20,0l-0,-17.873l-5.2,-0.299l-5.3,-0.3l-0.6,-9.585l-9.4,0.599l-0.3,42.236l-0.2,42.136l-10,-0c-7.1,-0 -10.2,-0.399 -10.5,-1.198Z" style="fill-rule:nonzero;"/><path id="pJFXLKIzV1" serif:id="pJFXLKIzV" d="M1057,305l-0,-10l-11,-0l-0,-9l-10,-0l-0,-94l10,-0l-0,-8.9l10.5,-0.6l0.6,-9.5l61.9,-0l-0,10l10,-0l-0,9l11,-0l-0,94l-11,-0l-0,9l-10,-0l-0,10l-62,-0Zm57.483,-103.141l-0,23.114l-9.5,-0l-0,20.174l-9.5,-0l-0,21.096l-9.5,0l-0,19.757l21.917,-0l0.3,-4.7l0.3,-4.8l10.5,-0.6l-0,-73.8l-4.517,-0.241Zm-19,-9.859l-28.483,-0l-0,10l-10,-0l-0,74l9.983,-0l-0,-19.34l0.017,0l-0,-0.66l9.483,-0l-0,-20.436l9.5,0l-0,-20.174l9.5,-0l-0,-23.39Z" style="fill-rule:nonzero;"/></g><g id="demoscene"><path id="po8J7s0cr" d="M2,155l-0,-39l21.9,-0l0.3,2.8c0.2,2.1 0.9,2.8 3.1,3l2.8,0.3l-0.6,27.4l-2.7,0.3c-2.2,0.3 -2.8,0.9 -2.8,2.8c-0,2.4 -0,2.4 -11,2.4l-11,-0Zm22,-6l-0,-27l-17,-0l-0,27l17,-0Z" style="fill-rule:nonzero;"/><path id="p12VztvBZR" d="M43,155l-0,-39l23,-0l-0,6l-17,-0l-0,11l5.5,-0c5.2,-0 5.5,0.1 5.5,2.5c-0,2.4 -0.3,2.5 -5.5,2.5l-5.5,-0l-0,11l17,-0l-0,6l-23,-0Z" style="fill-rule:nonzero;"/><path id="p38xVw7u7" d="M77,155l-0,-39l39,-0l-0,39l-6,-0l-0,-33l-11,-0l-0,33l-6,-0l-0,-33l-11,-0l-0,33l-5,-0Z" style="fill-rule:nonzero;"/><path id="p12WU7BiU2" d="M130,155l-0,-39l28,-0l-0,39l-28,-0Zm22,-6l-0,-27l-16,-0l-0,27l16,-0Z" style="fill-rule:nonzero;"/><path id="p5OXvqETY" d="M172,155l-0,-6l16,-0l-0,-11l-16,-0l-0,-22l22,-0l-0,6l-17,-0l-0,11l17,-0l-0,22l-22,-0Z" style="fill-rule:nonzero;"/><path id="poAUVlcwB" d="M207,155l-0,-39l23,-0l-0,6l-17,-0l-0,27l17,-0l-0,6l-23,-0Z" style="fill-rule:nonzero;"/><path id="p1BTHJvMrG" d="M243,155l-0,-39l23,-0l-0,6l-17,-0l-0,11l5.5,-0c5.2,-0 5.5,0.1 5.5,2.4c-0,2.3 -0.4,2.5 -5.2,2.8l-5.3,0.3l-0.3,5.3l-0.3,5.2l17.1,-0l-0,6l-23,-0Z" style="fill-rule:nonzero;"/><path id="p1HHHnW65Q" d="M277,155l-0,-39l28,-0l-0,39l-6,-0l-0,-33l-17,-0l-0,33l-5,-0Z" style="fill-rule:nonzero;"/><path id="pHpiq1l0l" d="M318,155l-0,-39l23,-0l-0,6l-17,-0l-0,11l5.5,-0c5.2,-0 5.5,0.1 5.5,2.4c-0,2.3 -0.4,2.5 -5.2,2.8l-5.3,0.3l-0.3,5.3l-0.3,5.2l17.1,-0l-0,6l-23,-0Z" style="fill-rule:nonzero;"/></g><g id="codebar"><path id="piZvwM1wF" d="M2,100l-0,-100l11,0l-0,100l-11,-0Z" style="fill-rule:nonzero;"/><path id="p1HeMzaIWr" d="M24.7,99.3c-0.4,-0.3 -0.7,-22.8 -0.7,-50l-0,-49.3l6,0l-0,100l-2.3,-0c-1.3,-0 -2.7,-0.3 -3,-0.7Z" style="fill-rule:nonzero;"/><path id="pOhTI2z6R" d="M43,100l-0,-100l6,0l-0,100l-6,-0Z" style="fill-rule:nonzero;"/><path id="pzesMva82" d="M60,100l-0,-100l6,0l-0,100l-6,-0Z" style="fill-rule:nonzero;"/><path id="pQgvO4UAf" d="M77,100l-0,-100l5,0l-0,100l-5,-0Z" style="fill-rule:nonzero;"/><path id="p1EZTfuL0v" d="M88,100l-0,-100l17,0l-0,100l-17,-0Z" style="fill-rule:nonzero;"/><path id="pXzr9TqcM" d="M110,100l-0,-100l6,0l-0,100l-6,-0Z" style="fill-rule:nonzero;"/><path id="pSI2ZUDa8" d="M130,100.1l-0,-100.1l17,0l-0.2,49.7l-0.3,49.8l-8.2,0.3l-8.3,0.3Z" style="fill-rule:nonzero;"/><path id="p9p5FlkkY" d="M152,100l-0,-100l6,0l-0,100l-6,-0Z" style="fill-rule:nonzero;"/><path id="pzfPd1feu" d="M172,100.1l-0,-100.1l11,0l-0.2,49.8l-0.3,49.7l-5.2,0.3l-5.3,0.3Z" style="fill-rule:nonzero;"/><path id="pDkWFEx8t" d="M188.7,99.3c-0.4,-0.3 -0.7,-22.8 -0.7,-50l-0,-49.3l6,0l-0,100l-2.3,-0c-1.3,-0 -2.7,-0.3 -3,-0.7Z" style="fill-rule:nonzero;"/><path id="pHFyKNFs8" d="M207.7,99.3c-0.4,-0.3 -0.7,-22.8 -0.7,-50l-0,-49.3l12,0l-0,100l-5.3,-0c-3,-0 -5.7,-0.3 -6,-0.7Z" style="fill-rule:nonzero;"/><path id="p1EkXWLV8K" d="M224.7,99.3c-0.4,-0.3 -0.7,-22.8 -0.7,-50l-0,-49.3l6,0l-0,100l-2.3,-0c-1.3,-0 -2.7,-0.3 -3,-0.7Z" style="fill-rule:nonzero;"/><path id="p5gUpC3UX" d="M243,100l-0,-100l6,0l-0,100l-6,-0Z" style="fill-rule:nonzero;"/><path id="pSfmHoRBa" d="M260,100l-0,-100l6,0l-0,100l-6,-0Z" style="fill-rule:nonzero;"/><path id="p1HM0q9mE1" d="M277,100l-0,-100l5,0l-0,100l-5,-0Z" style="fill-rule:nonzero;"/><path id="p126mCzGtq" d="M293,100l-0,-100l12,0l-0,100l-12,-0Z" style="fill-rule:nonzero;"/><path id="pLSGCPFmD" d="M318,100l-0,-100l6,0l-0,100l-6,-0Z" style="fill-rule:nonzero;"/><path id="p66op8hJl" d="M335,100l-0,-100l6,0l-0,100l-6,-0Z" style="fill-rule:nonzero;"/></g></svg>