<?xml version="1.0" encoding="UTF-8" standalone="no"?><!DOCTYPE svg PUBLIC "-//W3C//DTD SVG 1.1//EN" "http://www.w3.org/Graphics/SVG/1.1/DTD/svg11.dtd"><svg width="100%" height="100%" viewBox="0 0 128 98" version="1.1" xmlns="http://www.w3.org/2000/svg" xmlns:xlink="http://www.w3.org/1999/xlink" xml:space="preserve" xmlns:serif="http://www.serif.com/" style="fill-rule:evenodd;clip-rule:evenodd;stroke-linejoin:round;stroke-miterlimit:2;"><path d="M108.428,8.125c-8.41,-3.851 -17.288,-6.582 -26.407,-8.125c-1.248,2.231 -2.377,4.526 -3.383,6.876c-9.714,-1.464 -19.593,-1.464 -29.307,0c-1.006,-2.35 -2.135,-4.645 -3.382,-6.876c-9.126,1.556 -18.01,4.294 -26.428,8.145c-16.712,24.726 -21.243,48.838 -18.977,72.607c9.787,7.231 20.741,12.731 32.387,16.26c2.622,-3.527 4.943,-7.269 6.937,-11.186c-3.787,-1.414 -7.443,-3.159 -10.924,-5.215c0.916,-0.664 1.812,-1.349 2.678,-2.013c20.496,9.638 44.26,9.638 64.755,-0c0.876,0.715 1.772,1.399 2.678,2.013c-3.488,2.059 -7.149,3.808 -10.943,5.226c1.991,3.914 4.312,7.653 6.936,11.175c11.656,-3.515 22.619,-9.012 32.408,-16.25c2.658,-27.565 -4.541,-51.455 -19.028,-72.637Zm-65.691,58.009c-6.312,0 -11.527,-5.728 -11.527,-12.776c-0,-7.047 5.033,-12.826 11.507,-12.826c6.473,0 11.648,5.779 11.537,12.826c-0.11,7.048 -5.084,12.776 -11.517,12.776Zm42.526,0c-6.323,0 -11.518,-5.728 -11.518,-12.776c0,-7.047 5.034,-12.826 11.518,-12.826c6.483,0 11.618,5.779 11.507,12.826c-0.111,7.048 -5.074,12.776 -11.507,12.776Z" style="fill:#5865f2;fill-rule:nonzero;"/></svg>