<?xml version="1.0" encoding="UTF-8" standalone="no"?><!DOCTYPE svg PUBLIC "-//W3C//DTD SVG 1.1//EN" "http://www.w3.org/Graphics/SVG/1.1/DTD/svg11.dtd"><svg width="100%" height="100%" viewBox="0 0 254 132" version="1.1" xmlns="http://www.w3.org/2000/svg" xmlns:xlink="http://www.w3.org/1999/xlink" xml:space="preserve" xmlns:serif="http://www.serif.com/" style="fill-rule:evenodd;clip-rule:evenodd;stroke-linejoin:round;stroke-miterlimit:2;"><rect x="0" y="113" width="19" height="19" style="fill:#f00;"/><path d="M225.5,8.681l-0,-8.681l-38,0l-0,8.681l-9.045,-0l-0,10.319l-9.955,0l-0,38l9.5,-0l-0,8.5l-9.5,-0l-0,9.5l-9.5,0l-0,38l9.5,0l-0,9.5l9.5,0l-0,9.5l57,0l-0,-9.5l9.5,0l-0,-9.5l9.5,0l-0,-38l-9.5,0l-0,-9.5l-9.5,0l-0,-8.5l9.5,-0l-0,-38l-9.76,-0l0,-10.319l-9.24,-0Zm-38,94.819l-0,9.5l38,0l-0,-9.5l9.5,0l-0,-19l-9.5,-0l-0,-9l-38,0l-0,9l-9.5,-0l-0,19l9.5,0Zm9.955,-75.819l-9.955,-0l-0,16.319l9.955,-0l-0,12.5l18.285,0l0,-12.5l9.76,-0l-0,-16.319l-9.76,-0l0,-8.681l-18.285,0l-0,8.681Z" style="fill:#f00;"/><path id="pJFXLKIzV" d="M57,132l-0,-10l-11,0l-0,-9l-10,-0l-0,-94l10,0l-0,-8.9l10.5,-0.6l0.6,-9.5l61.9,0l-0,10l10,0l-0,9l11,0l-0,94l-11,-0l-0,9l-10,0l-0,10l-62,-0Zm57.483,-103.141l-0,23.114l-9.5,-0l-0,20.174l-9.5,-0l-0,21.096l-9.5,0l-0,19.757l21.917,-0l0.3,-4.7l0.3,-4.8l10.5,-0.6l-0,-73.8l-4.517,-0.241Zm-19,-9.859l-28.483,-0l-0,10l-10,-0l-0,74l9.983,0l-0,-19.34l0.017,0l-0,-0.66l9.483,-0l-0,-20.436l9.5,0l-0,-20.174l9.5,-0l-0,-23.39Z" style="fill:#f00;fill-rule:nonzero;"/></svg>