<?xml version="1.0" encoding="UTF-8" standalone="no"?><!DOCTYPE svg PUBLIC "-//W3C//DTD SVG 1.1//EN" "http://www.w3.org/Graphics/SVG/1.1/DTD/svg11.dtd"><svg width="100%" height="100%" viewBox="0 0 72 73" version="1.1" xmlns="http://www.w3.org/2000/svg" xmlns:xlink="http://www.w3.org/1999/xlink" xml:space="preserve" xmlns:serif="http://www.serif.com/" style="fill-rule:evenodd;clip-rule:evenodd;stroke-linejoin:round;stroke-miterlimit:2;"><path d="M70.922,44.714c-4.808,19.288 -24.344,31.026 -43.634,26.216c-19.282,-4.808 -31.021,-24.345 -26.21,-43.632c4.807,-19.29 24.342,-31.029 43.627,-26.221c19.289,4.809 31.026,24.348 26.217,43.637Zm-19.048,-13.839c0.717,-4.791 -2.931,-7.366 -7.918,-9.084l1.617,-6.49l-3.95,-0.984l-1.575,6.318c-1.038,-0.258 -2.105,-0.503 -3.165,-0.744l1.586,-6.361l-3.948,-0.984l-1.619,6.487c-0.859,-0.196 -7.965,-1.973 -7.965,-1.973l-1.051,4.219c-0,-0 2.931,0.672 2.869,0.713c1.6,0.4 1.889,1.458 1.84,2.298l-4.433,17.778c-0.195,0.486 -0.691,1.215 -1.81,0.938c0.04,0.058 -2.871,-0.717 -2.871,-0.717l-1.961,4.522c-0,0 7.034,1.772 7.957,2.009l-1.635,6.564l3.946,0.984l1.619,-6.494c1.078,0.292 2.124,0.562 3.148,0.817l-1.614,6.464l3.951,0.984l1.634,-6.552c6.737,1.275 11.802,0.761 13.934,-5.332c1.718,-4.905 -0.086,-7.735 -3.63,-9.58c2.581,-0.595 4.525,-2.293 5.044,-5.8Zm-9.026,12.657c-1.22,4.905 -9.48,2.253 -12.158,1.588l2.17,-8.696c2.677,0.668 11.264,1.992 9.988,7.108Zm1.222,-12.728c-1.114,4.462 -7.988,2.195 -10.218,1.64l1.967,-7.888c2.23,0.556 9.411,1.594 8.251,6.248Z" style="fill:#f7931a;fill-rule:nonzero;"/></svg>