<?xml version="1.0" encoding="UTF-8" standalone="no"?><!DOCTYPE svg PUBLIC "-//W3C//DTD SVG 1.1//EN" "http://www.w3.org/Graphics/SVG/1.1/DTD/svg11.dtd"><svg width="100%" height="100%" viewBox="0 0 193 62" version="1.1" xmlns="http://www.w3.org/2000/svg" xmlns:xlink="http://www.w3.org/1999/xlink" xml:space="preserve" xmlns:serif="http://www.serif.com/" style="fill-rule:evenodd;clip-rule:evenodd;stroke-linejoin:round;stroke-miterlimit:2;"><g><g><path d="M34.629,52.635l-4.666,-14.868l4.408,-21.111l5.009,15.554l-4.751,20.425Z" style="fill:url(#_Linear1);"/><path d="M51.887,30.947c0.07,-0.223 4.411,-12.271 4.411,-12.271c0.287,1.05 0.718,1.687 1.011,2.281c-2.64,2.682 -4.86,8.776 -5.422,9.99Z" style="fill:url(#_Linear2);fill-rule:nonzero;"/><path d="M86.47,28.676c0.078,7.835 -9.644,18.539 -24.37,10.092c-0.329,-2.42 0.791,-5.593 1.944,-7.616c9.403,9.413 20.072,2.112 19.234,-6.336c1.396,0.913 2.732,2.02 3.192,3.86Z" style="fill:url(#_Linear3);"/><path d="M13.065,52.988l-5.154,0l4.295,-9.777l2.404,-0l-1.545,9.777Z" style="fill:url(#_Linear4);fill-rule:nonzero;"/><path d="M22.115,3.153l-3.51,12.795l-4.999,3.693c0,0 -1.52,-2.688 -2.251,-4.142c0.31,1.68 0.759,3.329 1.304,4.945l-0.576,0.393l-0.191,-0.634l-0.576,-1.715l-1.231,-3.672l2.21,-6.77l9.82,-4.893Z" style="fill:url(#_Linear5);"/></g><g><path d="M177.114,32.97l-19.502,17.096l2.495,-11.86l22.575,-20.043l-5.568,14.807Z" style="fill:url(#_Linear6);"/><path d="M117.2,25.945c-1.121,-4.16 -8.336,-3.502 -17.64,-1.61c0.672,-2.971 1.647,-8.391 1.647,-8.391c9.523,0.245 14.292,1.479 16.735,3.418c-0,-0 0.003,-0 0.003,0.003c2.114,2.006 0.813,4.663 -0.745,6.58Z" style="fill:url(#_Linear7);"/><path d="M134.613,53.738c-23.741,0.765 -36.75,-6.452 -39.638,-10.375c-0.343,-0.53 -0.668,-1.107 -0.187,-1.496c0.798,-0.722 8.134,-0.149 10.774,-0.69c2.623,1.931 4.256,3.109 12.175,4.259c2.849,3.315 11.545,7.602 16.876,8.302Z" style="fill:url(#_Linear8);"/><path d="M163.907,22.022l-1.473,4.849l-5.286,3.393c-0.452,-1.45 -0.989,-2.879 -1.594,-4.277c0.241,1.574 0.566,3.134 0.976,4.67l0,0.003l-0.555,0.357l-1.891,-7.046l0.173,-0.757c1.658,-1.192 9.65,-1.192 9.65,-1.192Z" style="fill:url(#_Linear9);fill-rule:nonzero;"/></g><g><path d="M34.017,15.948c0,-0 -8.526,27.985 -9.459,31.002l0.031,0.007l-10.817,6.031l9.17,-31.026l11.075,-6.014Z" style="fill:url(#_Linear10);fill-rule:nonzero;"/><path d="M55.581,15.948l-9.428,31.009l-10.817,6.031l1.039,-3.516l0,-0.003c1.757,-4.995 7.13,-23.351 8.131,-27.507l11.075,-6.014Z" style="fill:url(#_Linear11);fill-rule:nonzero;"/><path d="M14.698,28.325l-7.494,24.663l-7.204,-6.031l6.61,-22.37l4.504,-2.972c0,-0 1.453,2.77 2.11,4.287c-0.275,-1.708 -0.653,-3.403 -1.141,-5.065l0.576,-0.393l2.039,7.881Z" style="fill:url(#_Linear12);"/><path d="M80.043,53.102c-10.743,4.11 -31.179,-2.017 -28.439,-17.847c0.265,-1.34 0.587,-2.586 0.962,-3.746c1.297,-4.05 3.315,-6.947 5.451,-9.229c8.922,-9.53 20.043,-5.434 21.248,-5.108c1.527,0.414 7.304,3.877 7.293,9.42c-0.063,-0.131 -1.626,-2.656 -4.779,-3.948l-0,0.004c-5.239,-1.939 -20.309,0.725 -20.779,15.681c-0.314,9.99 14.384,9.682 19.747,8.147c-0.107,1.305 -0.704,6.626 -0.704,6.626Z" style="fill:url(#_Linear13);fill-rule:nonzero;"/></g><g><path d="M100.592,15.948l-9.413,30.974l-0.011,0.035l-9.994,5.571l-0.827,0.46l0.562,-1.903l0,-0.003c0.506,-1.185 8.608,-29.12 8.608,-29.12l11.075,-6.014Z" style="fill:url(#_Linear14);fill-rule:nonzero;"/><path d="M119.565,23.051c-0,1.274 -0.255,9.502 -0.266,9.817c-0.042,1.174 -0.576,2.157 -1.463,2.985c-1.57,1.482 -4.256,2.48 -7.314,3.198c-0.004,0.003 -0.011,0.003 -0.014,0.003c-7.717,1.592 -15.328,0.361 -15.812,1.759c0.378,-1.093 1.134,-4.16 1.888,-6.102c0.752,-1.903 20.616,0.396 22.981,-11.66Z" style="fill:url(#_Linear15);"/><path d="M163.692,21.562c-25.498,-2.466 -58.614,23.909 -19.029,24.748c-3.889,3.664 -5.723,5.263 -8.307,7.428c-40.879,-11.956 -1.029,-39.074 19.873,-38.342c0.987,0.793 6.402,5.317 7.463,6.166Z" style="fill:url(#_Linear16);"/><path d="M192,21.87l-12.135,39.626l-7.244,-5.766l11.666,-39.064l7.713,5.204Z" style="fill:url(#_Linear17);"/><path d="M158.891,38.527l-1.849,6.088c-0.003,0.007 -2.647,8.292 -2.647,8.292l-7.105,-5.95l3.771,-12.752l4.285,-2.781c0.473,1.387 1.007,2.756 1.601,4.093c-0.268,-1.507 -0.569,-3.024 -0.972,-4.5l0.555,-0.357c0.279,1.047 0.597,2.084 0.958,3.106c-0,0.011 0.003,0.021 0.007,0.028l1.396,4.733Z" style="fill:url(#_Linear18);"/></g></g><g><path d="M26.751,10.504l-0.284,1.44l-1.568,0l2.212,-9.267l1.109,-0l2.212,9.267l-1.569,0l-0.284,-1.44l-1.828,0Zm0.292,-1.479l1.245,0l-0.623,-3.155l-0.622,3.155Z" style="fill-rule:nonzero;"/><path d="M35.894,12.04c-0.485,0 -0.901,-0.09 -1.25,-0.271c-0.348,-0.181 -0.614,-0.442 -0.799,-0.784c-0.185,-0.342 -0.277,-0.753 -0.277,-1.233l-0,-0.497l1.574,-0.013l-0,0.497c-0,0.234 0.065,0.418 0.197,0.552c0.132,0.134 0.314,0.2 0.549,0.2c0.229,0 0.406,-0.066 0.532,-0.197c0.125,-0.132 0.188,-0.313 0.188,-0.542l-0,-0.809c-0,-0.171 -0.048,-0.318 -0.144,-0.443c-0.095,-0.126 -0.219,-0.234 -0.369,-0.325c-0.151,-0.092 -0.356,-0.201 -0.616,-0.329c-0.017,-0.008 -0.033,-0.017 -0.047,-0.025c-0.015,-0.009 -0.031,-0.017 -0.048,-0.026l-0.083,-0.038c-0.344,-0.174 -0.637,-0.356 -0.88,-0.545c-0.242,-0.189 -0.444,-0.439 -0.605,-0.749c-0.161,-0.31 -0.242,-0.692 -0.242,-1.147l-0,-0.478c-0,-0.472 0.09,-0.877 0.271,-1.214c0.18,-0.338 0.443,-0.596 0.787,-0.775c0.344,-0.178 0.758,-0.267 1.243,-0.267c0.471,-0 0.877,0.089 1.217,0.267c0.34,0.179 0.599,0.439 0.778,0.781c0.178,0.342 0.268,0.753 0.268,1.233l-0,0.523l-1.575,0.019l-0,-0.529c-0,-0.238 -0.061,-0.424 -0.182,-0.558c-0.121,-0.133 -0.29,-0.2 -0.506,-0.2c-0.23,-0 -0.407,0.06 -0.533,0.181c-0.125,0.121 -0.188,0.288 -0.188,0.5l0,0.619c0,0.174 0.046,0.325 0.137,0.452c0.092,0.128 0.207,0.235 0.345,0.322c0.138,0.087 0.33,0.192 0.577,0.316c0.046,0.021 0.094,0.044 0.143,0.07c0.049,0.025 0.099,0.051 0.15,0.076c0.008,0.005 0.016,0.009 0.022,0.013c0.006,0.004 0.014,0.009 0.022,0.013c0.353,0.187 0.638,0.36 0.854,0.519c0.217,0.16 0.402,0.384 0.555,0.673c0.153,0.289 0.229,0.658 0.229,1.109l0,0.771c0,0.48 -0.09,0.891 -0.271,1.233c-0.18,0.342 -0.443,0.603 -0.787,0.784c-0.344,0.181 -0.756,0.271 -1.236,0.271Z" style="fill-rule:nonzero;"/><path d="M43.651,12.04c-0.485,0 -0.901,-0.09 -1.25,-0.271c-0.348,-0.181 -0.615,-0.442 -0.799,-0.784c-0.185,-0.342 -0.278,-0.753 -0.278,-1.233l0,-0.497l1.575,-0.013l-0,0.497c-0,0.234 0.065,0.418 0.197,0.552c0.132,0.134 0.315,0.2 0.548,0.2c0.23,0 0.407,-0.066 0.533,-0.197c0.125,-0.132 0.188,-0.313 0.188,-0.542l-0,-0.809c-0,-0.171 -0.048,-0.318 -0.144,-0.443c-0.095,-0.126 -0.218,-0.234 -0.369,-0.325c-0.151,-0.092 -0.356,-0.201 -0.616,-0.329c-0.017,-0.008 -0.032,-0.017 -0.048,-0.025c-0.014,-0.009 -0.03,-0.017 -0.047,-0.026l-0.083,-0.038c-0.344,-0.174 -0.638,-0.356 -0.879,-0.545c-0.243,-0.189 -0.445,-0.439 -0.606,-0.749c-0.162,-0.31 -0.243,-0.692 -0.243,-1.147l0,-0.478c0,-0.472 0.091,-0.877 0.272,-1.214c0.18,-0.338 0.442,-0.596 0.787,-0.775c0.344,-0.178 0.758,-0.267 1.242,-0.267c0.472,-0 0.878,0.089 1.218,0.267c0.34,0.179 0.599,0.439 0.777,0.781c0.179,0.342 0.268,0.753 0.268,1.233l0,0.523l-1.574,0.019l-0,-0.529c-0,-0.238 -0.061,-0.424 -0.182,-0.558c-0.121,-0.133 -0.29,-0.2 -0.507,-0.2c-0.229,-0 -0.406,0.06 -0.532,0.181c-0.125,0.121 -0.188,0.288 -0.188,0.5l0,0.619c0,0.174 0.046,0.325 0.137,0.452c0.092,0.128 0.207,0.235 0.344,0.322c0.139,0.087 0.331,0.192 0.577,0.316c0.047,0.021 0.095,0.044 0.144,0.07c0.049,0.025 0.098,0.051 0.15,0.076c0.008,0.005 0.015,0.009 0.022,0.013c0.006,0.004 0.014,0.009 0.022,0.013c0.353,0.187 0.638,0.36 0.854,0.519c0.217,0.16 0.402,0.384 0.555,0.673c0.153,0.289 0.229,0.658 0.229,1.109l0,0.771c0,0.48 -0.09,0.891 -0.271,1.233c-0.18,0.342 -0.443,0.603 -0.787,0.784c-0.344,0.181 -0.756,0.271 -1.236,0.271Z" style="fill-rule:nonzero;"/><path d="M51.452,12.04c-0.497,0 -0.923,-0.086 -1.278,-0.258c-0.354,-0.172 -0.625,-0.421 -0.813,-0.746c-0.186,-0.325 -0.28,-0.717 -0.28,-1.176l0,-5.099c0,-0.459 0.094,-0.852 0.28,-1.179c0.188,-0.327 0.459,-0.576 0.813,-0.745c0.355,-0.171 0.781,-0.255 1.278,-0.255c0.498,-0 0.923,0.084 1.278,0.255c0.355,0.169 0.626,0.418 0.813,0.745c0.187,0.327 0.28,0.72 0.28,1.179l0,5.099c0,0.459 -0.093,0.851 -0.28,1.176c-0.187,0.325 -0.458,0.574 -0.813,0.746c-0.355,0.172 -0.78,0.258 -1.278,0.258Zm0,-1.581c0.162,0 0.301,-0.031 0.418,-0.095c0.116,-0.064 0.205,-0.155 0.264,-0.274c0.06,-0.119 0.09,-0.264 0.09,-0.434l-0,-4.703c-0,-0.166 -0.03,-0.309 -0.09,-0.428c-0.059,-0.119 -0.148,-0.21 -0.264,-0.273c-0.117,-0.064 -0.256,-0.096 -0.418,-0.096c-0.161,-0 -0.299,0.032 -0.414,0.096c-0.115,0.063 -0.202,0.154 -0.262,0.273c-0.059,0.119 -0.089,0.262 -0.089,0.428l0,4.703c0,0.17 0.03,0.315 0.089,0.434c0.06,0.119 0.147,0.21 0.262,0.274c0.115,0.064 0.253,0.095 0.414,0.095Z" style="fill-rule:nonzero;"/><path d="M59.184,12.04c-0.468,0 -0.867,-0.093 -1.199,-0.277c-0.331,-0.185 -0.585,-0.454 -0.761,-0.806c-0.177,-0.353 -0.265,-0.778 -0.265,-1.275l0,-4.742c0,-0.497 0.088,-0.923 0.265,-1.275c0.176,-0.353 0.43,-0.621 0.761,-0.806c0.332,-0.185 0.731,-0.277 1.199,-0.277c0.467,-0 0.867,0.092 1.201,0.277c0.333,0.185 0.588,0.454 0.762,0.809c0.174,0.355 0.261,0.781 0.261,1.278l0,0.746l-1.6,-0l0,-0.746c0,-0.157 -0.023,-0.293 -0.07,-0.408c-0.046,-0.115 -0.118,-0.203 -0.214,-0.264c-0.095,-0.062 -0.209,-0.093 -0.34,-0.093c-0.128,0 -0.238,0.03 -0.332,0.089c-0.093,0.06 -0.164,0.147 -0.213,0.262c-0.049,0.115 -0.074,0.25 -0.074,0.408l0,4.742c0,0.157 0.025,0.292 0.074,0.404c0.049,0.113 0.12,0.199 0.213,0.258c0.094,0.06 0.204,0.09 0.332,0.09c0.136,-0 0.25,-0.03 0.344,-0.09c0.094,-0.059 0.164,-0.145 0.21,-0.258c0.047,-0.112 0.07,-0.249 0.07,-0.411l0,-0.746l1.6,0l0,0.746c0,0.498 -0.087,0.924 -0.261,1.278c-0.174,0.355 -0.429,0.625 -0.762,0.81c-0.334,0.184 -0.734,0.277 -1.201,0.277Z" style="fill-rule:nonzero;"/><rect x="64.544" y="2.677" width="1.581" height="9.268"/><path d="M71.113,10.504l-0.285,1.44l-1.567,0l2.211,-9.267l1.109,-0l2.212,9.267l-1.568,0l-0.284,-1.44l-1.828,0Zm0.292,-1.479l1.244,0l-0.622,-3.155l-0.622,3.155Z" style="fill-rule:nonzero;"/><path d="M79.401,11.945c-0.16,-0.045 -0.309,-0.106 -0.446,-0.182c-0.331,-0.185 -0.585,-0.454 -0.761,-0.806c-0.177,-0.353 -0.265,-0.778 -0.265,-1.275l0,-4.742c0,-0.497 0.088,-0.923 0.265,-1.275c0.176,-0.353 0.43,-0.621 0.761,-0.806c0.332,-0.185 0.731,-0.277 1.198,-0.277c0.468,-0 0.868,0.092 1.202,0.277c0.334,0.185 0.587,0.454 0.762,0.809c0.174,0.355 0.261,0.781 0.261,1.278l-0,0.746l-1.6,-0l0,-0.746c0,-0.157 -0.023,-0.293 -0.07,-0.408c-0.047,-0.115 -0.118,-0.203 -0.213,-0.264c-0.096,-0.062 -0.21,-0.093 -0.342,-0.093c-0.127,0 -0.238,0.03 -0.331,0.089c-0.094,0.06 -0.165,0.147 -0.213,0.262c-0.05,0.115 -0.074,0.25 -0.074,0.408l0,4.742c0,0.157 0.024,0.292 0.074,0.404c0.048,0.113 0.119,0.199 0.213,0.258c0.093,0.06 0.204,0.09 0.331,0.09c0.137,-0 0.251,-0.03 0.345,-0.09c0.093,-0.059 0.163,-0.145 0.21,-0.258c0.047,-0.112 0.07,-0.249 0.07,-0.411l0,-0.746l1.6,0l-0,0.746c-0,0.498 -0.087,0.924 -0.261,1.278c-0.175,0.355 -0.428,0.625 -0.762,0.81c-0.209,0.115 -0.444,0.195 -0.704,0.238l-0,0.355c0.233,0.045 0.422,0.126 0.564,0.242c0.231,0.189 0.347,0.477 0.347,0.863c-0,0.396 -0.128,0.69 -0.383,0.883c-0.255,0.194 -0.645,0.29 -1.172,0.29c-0.357,0 -0.676,-0.038 -0.956,-0.115l0.28,-1c0.145,0.059 0.304,0.089 0.478,0.089c0.149,-0 0.26,-0.02 0.332,-0.061c0.072,-0.04 0.108,-0.103 0.108,-0.188c0,-0.093 -0.062,-0.163 -0.185,-0.21c-0.1,-0.038 -0.243,-0.061 -0.428,-0.068l-0.235,-0.002l0,-1.134Z" style="fill-rule:nonzero;"/><path d="M87.366,10.504l-0.284,1.44l-1.568,0l2.211,-9.267l1.109,-0l2.212,9.267l-1.568,0l-0.284,-1.44l-1.828,0Zm0.291,-1.479l1.245,0l-0.622,-3.155l-0.623,3.155Zm2.561,-8.693c-0,0.539 -0.092,0.947 -0.274,1.223c-0.183,0.276 -0.451,0.414 -0.804,0.414c-0.076,0 -0.152,-0.006 -0.229,-0.019c-0.077,-0.012 -0.152,-0.032 -0.226,-0.057c-0.075,-0.025 -0.15,-0.059 -0.226,-0.102l-0.051,-0.022c-0.013,-0.007 -0.024,-0.014 -0.033,-0.022c-0.076,-0.043 -0.15,-0.075 -0.222,-0.096c-0.073,-0.021 -0.143,-0.032 -0.211,-0.032c-0.076,0 -0.129,0.018 -0.159,0.054c-0.03,0.036 -0.045,0.094 -0.045,0.175l0,0.14l-1.275,0l0,-0.337c0,-0.506 0.092,-0.888 0.275,-1.148c0.182,-0.258 0.45,-0.388 0.803,-0.388c0.131,-0 0.251,0.013 0.36,0.041c0.108,0.028 0.213,0.065 0.315,0.112l0.013,0.006c0.011,0.008 0.023,0.013 0.036,0.018l0.011,0.003c0.013,0.004 0.025,0.01 0.036,0.017c0.081,0.039 0.151,0.067 0.21,0.087c0.06,0.018 0.119,0.028 0.179,0.028c0.08,-0 0.14,-0.025 0.178,-0.073c0.039,-0.049 0.058,-0.12 0.058,-0.214l-0,-0.14l1.281,-0l-0,0.332Z" style="fill-rule:nonzero;"/><path d="M96.553,12.04c-0.497,0 -0.923,-0.086 -1.278,-0.258c-0.355,-0.172 -0.626,-0.421 -0.812,-0.746c-0.187,-0.325 -0.281,-0.717 -0.281,-1.176l0,-5.099c0,-0.459 0.094,-0.852 0.281,-1.179c0.186,-0.327 0.457,-0.576 0.812,-0.745c0.355,-0.171 0.781,-0.255 1.278,-0.255c0.497,-0 0.923,0.084 1.278,0.255c0.355,0.169 0.626,0.418 0.813,0.745c0.187,0.327 0.28,0.72 0.28,1.179l0,5.099c0,0.459 -0.093,0.851 -0.28,1.176c-0.187,0.325 -0.458,0.574 -0.813,0.746c-0.355,0.172 -0.781,0.258 -1.278,0.258Zm0,-1.581c0.162,0 0.301,-0.031 0.418,-0.095c0.116,-0.064 0.205,-0.155 0.264,-0.274c0.06,-0.119 0.089,-0.264 0.089,-0.434l0,-4.703c0,-0.166 -0.029,-0.309 -0.089,-0.428c-0.059,-0.119 -0.148,-0.21 -0.264,-0.273c-0.117,-0.064 -0.256,-0.096 -0.418,-0.096c-0.161,-0 -0.299,0.032 -0.414,0.096c-0.115,0.063 -0.202,0.154 -0.261,0.273c-0.06,0.119 -0.089,0.262 -0.089,0.428l-0,4.703c-0,0.17 0.029,0.315 0.089,0.434c0.059,0.119 0.146,0.21 0.261,0.274c0.115,0.064 0.253,0.095 0.414,0.095Z" style="fill-rule:nonzero;"/></g><defs><linearGradient id="_Linear1" x1="0" y1="0" x2="1" y2="0" gradientUnits="userSpaceOnUse" gradientTransform="matrix(-0.0276954,-37.5253,23.8048,-0.0175691,47.973,52.9071)"><stop offset="0" style="stop-color:#2f7178;stop-opacity:1"/><stop offset="0.57" style="stop-color:#77c8ae;stop-opacity:1"/><stop offset="1" style="stop-color:#2f7178;stop-opacity:1"/></linearGradient><linearGradient id="_Linear2" x1="0" y1="0" x2="1" y2="0" gradientUnits="userSpaceOnUse" gradientTransform="matrix(-0.0276954,-37.5253,23.8048,-0.0175691,47.973,52.9071)"><stop offset="0" style="stop-color:#2f7178;stop-opacity:1"/><stop offset="0.57" style="stop-color:#77c8ae;stop-opacity:1"/><stop offset="1" style="stop-color:#2f7178;stop-opacity:1"/></linearGradient><linearGradient id="_Linear3" x1="0" y1="0" x2="1" y2="0" gradientUnits="userSpaceOnUse" gradientTransform="matrix(-0.0276954,-37.5253,23.8048,-0.0175691,47.973,52.9071)"><stop offset="0" style="stop-color:#2f7178;stop-opacity:1"/><stop offset="0.57" style="stop-color:#77c8ae;stop-opacity:1"/><stop offset="1" style="stop-color:#2f7178;stop-opacity:1"/></linearGradient><linearGradient id="_Linear4" x1="0" y1="0" x2="1" y2="0" gradientUnits="userSpaceOnUse" gradientTransform="matrix(-0.0276954,-37.5253,23.8048,-0.0175691,47.973,52.9071)"><stop offset="0" style="stop-color:#2f7178;stop-opacity:1"/><stop offset="0.57" style="stop-color:#77c8ae;stop-opacity:1"/><stop offset="1" style="stop-color:#2f7178;stop-opacity:1"/></linearGradient><linearGradient id="_Linear5" x1="0" y1="0" x2="1" y2="0" gradientUnits="userSpaceOnUse" gradientTransform="matrix(-0.0276954,-37.5253,23.8048,-0.0175691,47.973,52.9071)"><stop offset="0" style="stop-color:#2f7178;stop-opacity:1"/><stop offset="0.57" style="stop-color:#77c8ae;stop-opacity:1"/><stop offset="1" style="stop-color:#2f7178;stop-opacity:1"/></linearGradient><linearGradient id="_Linear6" x1="0" y1="0" x2="1" y2="0" gradientUnits="userSpaceOnUse" gradientTransform="matrix(88.1371,0,0,37.8502,94.5449,34.8695)"><stop offset="0" style="stop-color:#952557;stop-opacity:1"/><stop offset="0.24" style="stop-color:#eb5057;stop-opacity:1"/><stop offset="0.55" style="stop-color:#6f0a22;stop-opacity:1"/><stop offset="0.85" style="stop-color:#eb5057;stop-opacity:1"/><stop offset="1" style="stop-color:#952557;stop-opacity:1"/></linearGradient><linearGradient id="_Linear7" x1="0" y1="0" x2="1" y2="0" gradientUnits="userSpaceOnUse" gradientTransform="matrix(88.1371,0,0,37.8502,94.5449,34.8695)"><stop offset="0" style="stop-color:#952557;stop-opacity:1"/><stop offset="0.24" style="stop-color:#eb5057;stop-opacity:1"/><stop offset="0.55" style="stop-color:#6f0a22;stop-opacity:1"/><stop offset="0.85" style="stop-color:#eb5057;stop-opacity:1"/><stop offset="1" style="stop-color:#952557;stop-opacity:1"/></linearGradient><linearGradient id="_Linear8" x1="0" y1="0" x2="1" y2="0" gradientUnits="userSpaceOnUse" gradientTransform="matrix(88.1371,0,0,37.8502,94.5449,34.8695)"><stop offset="0" style="stop-color:#952557;stop-opacity:1"/><stop offset="0.24" style="stop-color:#eb5057;stop-opacity:1"/><stop offset="0.55" style="stop-color:#6f0a22;stop-opacity:1"/><stop offset="0.85" style="stop-color:#eb5057;stop-opacity:1"/><stop offset="1" style="stop-color:#952557;stop-opacity:1"/></linearGradient><linearGradient id="_Linear9" x1="0" y1="0" x2="1" y2="0" gradientUnits="userSpaceOnUse" gradientTransform="matrix(88.1371,0,0,37.8502,94.5449,34.8695)"><stop offset="0" style="stop-color:#952557;stop-opacity:1"/><stop offset="0.24" style="stop-color:#eb5057;stop-opacity:1"/><stop offset="0.55" style="stop-color:#6f0a22;stop-opacity:1"/><stop offset="0.85" style="stop-color:#eb5057;stop-opacity:1"/><stop offset="1" style="stop-color:#952557;stop-opacity:1"/></linearGradient><linearGradient id="_Linear10" x1="0" y1="0" x2="1" y2="0" gradientUnits="userSpaceOnUse" gradientTransform="matrix(1.68442,-37.1285,16.4696,0.747182,47.1907,53.7946)"><stop offset="0" style="stop-color:#379d7f;stop-opacity:1"/><stop offset="0.55" style="stop-color:#b1d372;stop-opacity:1"/><stop offset="1" style="stop-color:#379d7f;stop-opacity:1"/></linearGradient><linearGradient id="_Linear11" x1="0" y1="0" x2="1" y2="0" gradientUnits="userSpaceOnUse" gradientTransform="matrix(1.68442,-37.1285,16.4696,0.747182,47.1907,53.7946)"><stop offset="0" style="stop-color:#379d7f;stop-opacity:1"/><stop offset="0.55" style="stop-color:#b1d372;stop-opacity:1"/><stop offset="1" style="stop-color:#379d7f;stop-opacity:1"/></linearGradient><linearGradient id="_Linear12" x1="0" y1="0" x2="1" y2="0" gradientUnits="userSpaceOnUse" gradientTransform="matrix(1.68442,-37.1285,16.4696,0.747182,47.1907,53.7946)"><stop offset="0" style="stop-color:#379d7f;stop-opacity:1"/><stop offset="0.55" style="stop-color:#b1d372;stop-opacity:1"/><stop offset="1" style="stop-color:#379d7f;stop-opacity:1"/></linearGradient><linearGradient id="_Linear13" x1="0" y1="0" x2="1" y2="0" gradientUnits="userSpaceOnUse" gradientTransform="matrix(1.68442,-37.1285,16.4696,0.747182,47.1907,53.7946)"><stop offset="0" style="stop-color:#379d7f;stop-opacity:1"/><stop offset="0.55" style="stop-color:#b1d372;stop-opacity:1"/><stop offset="1" style="stop-color:#379d7f;stop-opacity:1"/></linearGradient><linearGradient id="_Linear14" x1="0" y1="0" x2="1" y2="0" gradientUnits="userSpaceOnUse" gradientTransform="matrix(1.50216e-15,-24.5322,10.1321,6.20409e-16,138.613,47.5834)"><stop offset="0" style="stop-color:#ef4161;stop-opacity:1"/><stop offset="0.5" style="stop-color:#f38085;stop-opacity:1"/><stop offset="1" style="stop-color:#ef4161;stop-opacity:1"/></linearGradient><linearGradient id="_Linear15" x1="0" y1="0" x2="1" y2="0" gradientUnits="userSpaceOnUse" gradientTransform="matrix(1.50216e-15,-24.5322,10.1321,6.20409e-16,138.613,47.5834)"><stop offset="0" style="stop-color:#ef4161;stop-opacity:1"/><stop offset="0.5" style="stop-color:#f38085;stop-opacity:1"/><stop offset="1" style="stop-color:#ef4161;stop-opacity:1"/></linearGradient><linearGradient id="_Linear16" x1="0" y1="0" x2="1" y2="0" gradientUnits="userSpaceOnUse" gradientTransform="matrix(1.50216e-15,-24.5322,10.1321,6.20409e-16,138.613,47.5834)"><stop offset="0" style="stop-color:#ef4161;stop-opacity:1"/><stop offset="0.5" style="stop-color:#f38085;stop-opacity:1"/><stop offset="1" style="stop-color:#ef4161;stop-opacity:1"/></linearGradient><linearGradient id="_Linear17" x1="0" y1="0" x2="1" y2="0" gradientUnits="userSpaceOnUse" gradientTransform="matrix(1.50216e-15,-24.5322,10.1321,6.20409e-16,138.613,47.5834)"><stop offset="0" style="stop-color:#ef4161;stop-opacity:1"/><stop offset="0.5" style="stop-color:#f38085;stop-opacity:1"/><stop offset="1" style="stop-color:#ef4161;stop-opacity:1"/></linearGradient><linearGradient id="_Linear18" x1="0" y1="0" x2="1" y2="0" gradientUnits="userSpaceOnUse" gradientTransform="matrix(1.50216e-15,-24.5322,10.1321,6.20409e-16,138.613,47.5834)"><stop offset="0" style="stop-color:#ef4161;stop-opacity:1"/><stop offset="0.5" style="stop-color:#f38085;stop-opacity:1"/><stop offset="1" style="stop-color:#ef4161;stop-opacity:1"/></linearGradient></defs></svg>