<?xml version="1.0" encoding="UTF-8" standalone="no"?><!DOCTYPE svg PUBLIC "-//W3C//DTD SVG 1.1//EN" "http://www.w3.org/Graphics/SVG/1.1/DTD/svg11.dtd"><svg width="100%" height="100%" viewBox="0 0 184 59" version="1.1" xmlns="http://www.w3.org/2000/svg" xmlns:xlink="http://www.w3.org/1999/xlink" xml:space="preserve" xmlns:serif="http://www.serif.com/" style="fill-rule:evenodd;clip-rule:evenodd;stroke-linejoin:round;stroke-miterlimit:2;"><path d="M183.987,20.494l-11.629,37.972l-6.941,-5.525l11.178,-37.434l7.392,4.987Zm-107.285,29.928c-10.294,3.939 -29.877,-1.932 -27.252,-17.101c0.254,-1.285 0.563,-2.478 0.922,-3.59c1.243,-3.881 3.177,-6.657 5.223,-8.844c8.55,-9.132 19.207,-5.207 20.362,-4.895c1.463,0.397 6.999,3.715 6.989,9.027c-0.061,-0.125 -1.559,-2.546 -4.581,-3.783l0,0.003c-5.02,-1.857 -19.46,0.695 -19.911,15.027c-0.301,9.573 13.784,9.278 18.922,7.807c-0.101,1.251 -0.674,6.349 -0.674,6.349Zm52.293,0.61c-22.751,0.733 -35.216,-6.183 -37.984,-9.942c-0.329,-0.508 -0.64,-1.061 -0.179,-1.434c0.765,-0.691 7.794,-0.142 10.324,-0.661c2.514,1.851 4.079,2.98 11.667,4.082c2.73,3.176 11.063,7.284 16.172,7.955Zm27.865,-30.833c-24.434,-2.363 -56.168,22.912 -18.235,23.715c-3.726,3.512 -5.484,5.044 -7.96,7.118c-39.173,-11.457 -0.986,-37.443 19.044,-36.741c0.945,0.759 6.135,5.094 7.151,5.908Zm-144.34,30.115l-4.939,-0l4.116,-9.37l2.303,0l-1.48,9.37Zm20.078,-35.495c-0,0 -8.171,26.817 -9.065,29.709l-10.335,5.786l8.787,-29.732l10.613,-5.763Zm63.796,0l-9.021,29.681l-10.379,5.814l8.787,-29.732l10.613,-5.763Zm-86.729,-1.084l2.117,-6.488l9.41,-4.688l-3.364,12.26l-4.79,3.539c0,0 -1.456,-2.576 -2.157,-3.969c0.297,1.61 0.728,3.19 1.25,4.739l1.954,7.552l-7.181,23.634l-6.904,-5.78l6.334,-21.437l4.316,-2.847c0,-0 1.392,2.654 2.022,4.108c-0.264,-1.637 -0.643,-3.311 -1.11,-4.904l-1.897,-5.719Zm43.596,1.084l-9.034,29.715l-10.366,5.78c0,-0 7.828,-25.749 8.787,-29.732l10.613,-5.763Zm103.805,5.821l-1.412,4.647l-5.064,3.251c-0.434,-1.39 -0.949,-2.76 -1.528,-4.099c0.23,1.509 0.542,3.004 0.935,4.475l0,0.003c0.268,1.004 2.263,7.539 2.263,7.539l-4.309,13.78l-6.809,-5.702l3.615,-12.22l4.105,-2.664c0.454,1.329 0.966,2.64 1.535,3.922c-0.258,-1.444 -0.546,-2.899 -0.932,-4.312l-1.812,-6.753l0.166,-0.725c1.588,-1.142 9.247,-1.142 9.247,-1.142Zm-123.882,29.335l-4.472,-14.247l4.224,-20.231l4.8,14.905l-4.552,19.573Zm136.538,-18.844l-18.688,16.383l2.391,-11.366l21.632,-19.207l-5.335,14.19Zm-86.861,-4.115c0.074,7.508 -9.241,17.766 -23.353,9.671c-0.315,-2.319 0.758,-5.359 1.863,-7.298c9.01,9.02 19.234,2.023 18.431,-6.071c1.338,0.874 2.618,1.935 3.059,3.698Zm31.713,-5.39c0,1.22 -0.244,9.105 -0.254,9.407c-0.04,1.125 -0.552,2.067 -1.402,2.861c-1.504,1.42 -4.079,2.376 -7.009,3.064c-0.003,0.003 -0.01,0.003 -0.014,0.003c-7.394,1.526 -14.687,0.346 -15.152,1.685c0.363,-1.047 1.088,-3.986 1.809,-5.847c0.722,-1.824 19.756,0.379 22.022,-11.173Zm-64.853,7.566c0.068,-0.214 4.228,-11.759 4.228,-11.759c0.274,1.007 0.687,1.617 0.969,2.186c-2.531,2.57 -4.658,8.41 -5.197,9.573Zm62.587,-4.793c-1.074,-3.987 -7.987,-3.356 -16.904,-1.543c0.644,-2.847 1.579,-8.04 1.579,-8.04c9.126,0.234 13.696,1.417 16.036,3.274c0,0 0.004,0 0.004,0.004c2.025,1.922 0.779,4.468 -0.715,6.305Z"/><g><path d="M27.002,9.459l-0.256,1.297l-1.412,-0l1.992,-8.346l0.999,0l1.991,8.346l-1.412,-0l-0.256,-1.297l-1.646,-0Zm0.263,-1.332l1.121,0l-0.561,-2.841l-0.56,2.841Z" style="fill-rule:nonzero;"/><path d="M35.235,10.842c-0.436,0 -0.811,-0.081 -1.125,-0.244c-0.314,-0.163 -0.554,-0.398 -0.72,-0.706c-0.167,-0.308 -0.25,-0.678 -0.25,-1.111l0,-0.447l1.418,-0.012l-0,0.448c-0,0.211 0.059,0.376 0.178,0.497c0.118,0.12 0.283,0.18 0.493,0.18c0.207,0 0.367,-0.059 0.48,-0.178c0.112,-0.118 0.169,-0.281 0.169,-0.488l-0,-0.728c-0,-0.154 -0.043,-0.286 -0.13,-0.399c-0.085,-0.113 -0.197,-0.211 -0.332,-0.293c-0.136,-0.082 -0.321,-0.181 -0.554,-0.296c-0.015,-0.007 -0.03,-0.015 -0.043,-0.022c-0.014,-0.008 -0.028,-0.016 -0.043,-0.024l-0.075,-0.034c-0.31,-0.157 -0.574,-0.321 -0.792,-0.491c-0.218,-0.17 -0.4,-0.395 -0.545,-0.674c-0.146,-0.279 -0.218,-0.624 -0.218,-1.033l-0,-0.431c-0,-0.424 0.081,-0.789 0.244,-1.093c0.162,-0.304 0.399,-0.537 0.709,-0.697c0.309,-0.161 0.682,-0.241 1.119,-0.241c0.424,-0 0.79,0.08 1.096,0.241c0.306,0.16 0.539,0.395 0.7,0.703c0.161,0.308 0.241,0.678 0.241,1.11l0,0.471l-1.418,0.017l0,-0.476c0,-0.215 -0.054,-0.382 -0.163,-0.503c-0.109,-0.12 -0.261,-0.18 -0.456,-0.18c-0.207,-0 -0.367,0.054 -0.48,0.163c-0.112,0.109 -0.169,0.26 -0.169,0.451l0,0.557c0,0.157 0.041,0.292 0.124,0.407c0.082,0.115 0.185,0.212 0.309,0.29c0.125,0.078 0.298,0.173 0.52,0.284c0.042,0.019 0.085,0.04 0.129,0.063c0.044,0.023 0.089,0.046 0.135,0.069c0.008,0.004 0.014,0.008 0.02,0.011c0.006,0.004 0.013,0.008 0.02,0.012c0.318,0.168 0.574,0.324 0.769,0.468c0.195,0.143 0.362,0.345 0.499,0.605c0.138,0.261 0.207,0.593 0.207,0.999l0,0.694c0,0.433 -0.081,0.803 -0.244,1.111c-0.162,0.308 -0.399,0.543 -0.709,0.706c-0.31,0.163 -0.681,0.244 -1.113,0.244Z" style="fill-rule:nonzero;"/><path d="M42.22,10.842c-0.436,0 -0.811,-0.081 -1.125,-0.244c-0.314,-0.163 -0.554,-0.398 -0.72,-0.706c-0.167,-0.308 -0.25,-0.678 -0.25,-1.111l0,-0.447l1.418,-0.012l-0,0.448c-0,0.211 0.059,0.376 0.178,0.497c0.118,0.12 0.283,0.18 0.493,0.18c0.207,0 0.367,-0.059 0.479,-0.178c0.113,-0.118 0.17,-0.281 0.17,-0.488l-0,-0.728c-0,-0.154 -0.043,-0.286 -0.13,-0.399c-0.085,-0.113 -0.196,-0.211 -0.332,-0.293c-0.136,-0.082 -0.321,-0.181 -0.554,-0.296c-0.016,-0.007 -0.03,-0.015 -0.043,-0.022c-0.014,-0.008 -0.028,-0.016 -0.043,-0.024l-0.075,-0.034c-0.31,-0.157 -0.574,-0.321 -0.792,-0.491c-0.218,-0.17 -0.4,-0.395 -0.545,-0.674c-0.146,-0.279 -0.218,-0.624 -0.218,-1.033l-0,-0.431c-0,-0.424 0.081,-0.789 0.244,-1.093c0.162,-0.304 0.399,-0.537 0.708,-0.697c0.31,-0.161 0.683,-0.241 1.12,-0.241c0.424,-0 0.79,0.08 1.096,0.241c0.306,0.16 0.539,0.395 0.7,0.703c0.161,0.308 0.241,0.678 0.241,1.11l0,0.471l-1.418,0.017l0,-0.476c0,-0.215 -0.054,-0.382 -0.163,-0.503c-0.109,-0.12 -0.261,-0.18 -0.456,-0.18c-0.207,-0 -0.367,0.054 -0.48,0.163c-0.113,0.109 -0.169,0.26 -0.169,0.451l0,0.557c0,0.157 0.041,0.292 0.123,0.407c0.083,0.115 0.186,0.212 0.31,0.29c0.125,0.078 0.298,0.173 0.52,0.284c0.042,0.019 0.085,0.04 0.129,0.063c0.044,0.023 0.089,0.046 0.135,0.069c0.008,0.004 0.014,0.008 0.02,0.011c0.006,0.004 0.013,0.008 0.02,0.012c0.318,0.168 0.574,0.324 0.769,0.468c0.195,0.143 0.362,0.345 0.499,0.605c0.138,0.261 0.207,0.593 0.207,0.999l0,0.694c0,0.433 -0.081,0.803 -0.244,1.111c-0.162,0.308 -0.399,0.543 -0.709,0.706c-0.31,0.163 -0.681,0.244 -1.113,0.244Z" style="fill-rule:nonzero;"/><path d="M49.245,10.842c-0.447,0 -0.831,-0.078 -1.151,-0.232c-0.319,-0.155 -0.563,-0.379 -0.732,-0.672c-0.168,-0.293 -0.252,-0.646 -0.252,-1.059l0,-4.592c0,-0.413 0.084,-0.767 0.252,-1.062c0.169,-0.294 0.413,-0.518 0.732,-0.671c0.32,-0.153 0.704,-0.229 1.151,-0.229c0.448,-0 0.832,0.076 1.151,0.229c0.32,0.153 0.563,0.377 0.732,0.671c0.168,0.295 0.252,0.649 0.252,1.062l0,4.592c0,0.413 -0.084,0.766 -0.252,1.059c-0.169,0.293 -0.412,0.517 -0.732,0.672c-0.319,0.154 -0.703,0.232 -1.151,0.232Zm0,-1.423c0.145,-0 0.271,-0.029 0.376,-0.087c0.105,-0.057 0.185,-0.139 0.238,-0.246c0.054,-0.107 0.081,-0.238 0.081,-0.391l-0,-4.235c-0,-0.15 -0.027,-0.278 -0.081,-0.385c-0.053,-0.107 -0.133,-0.189 -0.238,-0.247c-0.105,-0.057 -0.231,-0.086 -0.376,-0.086c-0.145,0 -0.269,0.029 -0.373,0.086c-0.103,0.058 -0.182,0.14 -0.235,0.247c-0.054,0.107 -0.081,0.235 -0.081,0.385l0,4.235c0,0.153 0.027,0.284 0.081,0.391c0.053,0.107 0.132,0.189 0.235,0.246c0.104,0.058 0.228,0.087 0.373,0.087Z" style="fill-rule:nonzero;"/><path d="M56.207,10.842c-0.421,0 -0.781,-0.083 -1.079,-0.25c-0.298,-0.166 -0.527,-0.408 -0.686,-0.726c-0.158,-0.317 -0.238,-0.7 -0.238,-1.148l-0,-4.27c-0,-0.448 0.08,-0.83 0.238,-1.148c0.159,-0.317 0.388,-0.559 0.686,-0.726c0.298,-0.166 0.658,-0.249 1.079,-0.249c0.421,-0 0.782,0.083 1.082,0.249c0.3,0.167 0.529,0.41 0.686,0.729c0.157,0.32 0.235,0.703 0.235,1.151l0,0.671l-1.44,0l-0,-0.671c-0,-0.142 -0.022,-0.264 -0.063,-0.367c-0.042,-0.104 -0.107,-0.183 -0.193,-0.239c-0.086,-0.055 -0.188,-0.083 -0.307,-0.083c-0.114,-0 -0.214,0.027 -0.298,0.08c-0.084,0.054 -0.148,0.132 -0.193,0.236c-0.043,0.103 -0.065,0.225 -0.065,0.367l-0,4.27c-0,0.142 0.022,0.263 0.065,0.365c0.045,0.101 0.109,0.179 0.193,0.232c0.084,0.054 0.184,0.08 0.298,0.08c0.123,0 0.226,-0.026 0.31,-0.08c0.085,-0.053 0.148,-0.131 0.19,-0.232c0.041,-0.102 0.063,-0.225 0.063,-0.37l-0,-0.672l1.44,-0l0,0.672c0,0.447 -0.078,0.831 -0.235,1.15c-0.157,0.32 -0.386,0.563 -0.686,0.729c-0.3,0.167 -0.661,0.25 -1.082,0.25Z" style="fill-rule:nonzero;"/><rect x="61.034" y="2.41" width="1.423" height="8.345"/><path d="M66.949,9.459l-0.256,1.297l-1.412,-0l1.992,-8.346l0.999,0l1.991,8.346l-1.412,-0l-0.256,-1.297l-1.646,-0Zm0.263,-1.332l1.121,0l-0.561,-2.841l-0.56,2.841Z" style="fill-rule:nonzero;"/><path d="M74.413,10.756c-0.144,-0.04 -0.278,-0.095 -0.402,-0.164c-0.298,-0.166 -0.527,-0.408 -0.685,-0.726c-0.16,-0.317 -0.239,-0.7 -0.239,-1.148l0,-4.27c0,-0.448 0.079,-0.83 0.239,-1.148c0.158,-0.317 0.387,-0.559 0.685,-0.726c0.299,-0.166 0.658,-0.249 1.079,-0.249c0.421,-0 0.782,0.083 1.082,0.249c0.301,0.167 0.529,0.41 0.686,0.729c0.157,0.32 0.235,0.703 0.235,1.151l0,0.671l-1.44,0l-0,-0.671c-0,-0.142 -0.021,-0.264 -0.064,-0.367c-0.041,-0.104 -0.106,-0.183 -0.192,-0.239c-0.086,-0.055 -0.188,-0.083 -0.307,-0.083c-0.115,-0 -0.214,0.027 -0.298,0.08c-0.085,0.054 -0.148,0.132 -0.192,0.236c-0.045,0.103 -0.066,0.225 -0.066,0.367l-0,4.27c-0,0.142 0.021,0.263 0.066,0.365c0.044,0.101 0.107,0.179 0.192,0.232c0.084,0.054 0.183,0.08 0.298,0.08c0.123,0 0.226,-0.026 0.31,-0.08c0.084,-0.053 0.148,-0.131 0.189,-0.232c0.043,-0.102 0.064,-0.225 0.064,-0.37l-0,-0.672l1.44,-0l0,0.672c0,0.447 -0.078,0.831 -0.235,1.15c-0.157,0.32 -0.385,0.563 -0.686,0.729c-0.188,0.104 -0.399,0.176 -0.634,0.215l0,0.32c0.211,0.04 0.38,0.113 0.508,0.217c0.208,0.17 0.313,0.43 0.313,0.778c-0,0.356 -0.115,0.621 -0.345,0.795c-0.229,0.174 -0.581,0.261 -1.056,0.261c-0.321,0 -0.608,-0.034 -0.861,-0.103l0.253,-0.902c0.13,0.054 0.274,0.081 0.43,0.081c0.134,-0 0.234,-0.018 0.299,-0.055c0.065,-0.036 0.097,-0.093 0.097,-0.169c0,-0.084 -0.055,-0.147 -0.166,-0.189c-0.091,-0.035 -0.219,-0.055 -0.386,-0.061l-0.211,-0.002l-0,-1.022Z" style="fill-rule:nonzero;"/><path d="M81.585,9.459l-0.256,1.297l-1.412,-0l1.992,-8.346l0.998,0l1.992,8.346l-1.412,-0l-0.255,-1.297l-1.647,-0Zm0.263,-1.332l1.121,0l-0.561,-2.841l-0.56,2.841Zm2.305,-7.828c0,0.485 -0.082,0.853 -0.247,1.101c-0.164,0.249 -0.405,0.373 -0.723,0.373c-0.069,0 -0.138,-0.005 -0.207,-0.017c-0.069,-0.011 -0.136,-0.028 -0.203,-0.051c-0.067,-0.023 -0.135,-0.054 -0.204,-0.092l-0.046,-0.02c-0.012,-0.006 -0.021,-0.013 -0.029,-0.02c-0.068,-0.039 -0.135,-0.067 -0.2,-0.086c-0.066,-0.02 -0.129,-0.029 -0.19,-0.029c-0.069,-0 -0.117,0.016 -0.144,0.049c-0.026,0.032 -0.04,0.085 -0.04,0.157l0,0.127l-1.148,-0l0,-0.304c0,-0.456 0.083,-0.8 0.247,-1.034c0.165,-0.233 0.406,-0.35 0.724,-0.35c0.118,0 0.226,0.013 0.324,0.038c0.097,0.024 0.192,0.058 0.284,0.1l0.011,0.006c0.01,0.007 0.021,0.012 0.033,0.016l0.009,0.003c0.012,0.003 0.023,0.009 0.033,0.015c0.073,0.035 0.136,0.061 0.189,0.078c0.054,0.017 0.108,0.025 0.161,0.025c0.073,0 0.126,-0.022 0.161,-0.065c0.034,-0.044 0.052,-0.109 0.052,-0.193l-0,-0.126l1.153,-0l0,0.299Z" style="fill-rule:nonzero;"/><path d="M89.858,10.842c-0.447,0 -0.831,-0.078 -1.151,-0.232c-0.319,-0.155 -0.563,-0.379 -0.731,-0.672c-0.169,-0.293 -0.253,-0.646 -0.253,-1.059l-0,-4.592c-0,-0.413 0.084,-0.767 0.253,-1.062c0.168,-0.294 0.412,-0.518 0.731,-0.671c0.32,-0.153 0.704,-0.229 1.151,-0.229c0.448,-0 0.831,0.076 1.151,0.229c0.319,0.153 0.563,0.377 0.732,0.671c0.168,0.295 0.252,0.649 0.252,1.062l0,4.592c0,0.413 -0.084,0.766 -0.252,1.059c-0.169,0.293 -0.413,0.517 -0.732,0.672c-0.32,0.154 -0.703,0.232 -1.151,0.232Zm-0,-1.423c0.146,-0 0.271,-0.029 0.376,-0.087c0.105,-0.057 0.185,-0.139 0.238,-0.246c0.054,-0.107 0.081,-0.238 0.081,-0.391l-0,-4.235c-0,-0.15 -0.027,-0.278 -0.081,-0.385c-0.053,-0.107 -0.133,-0.189 -0.238,-0.247c-0.105,-0.057 -0.23,-0.086 -0.376,-0.086c-0.145,0 -0.27,0.029 -0.373,0.086c-0.103,0.058 -0.182,0.14 -0.235,0.247c-0.054,0.107 -0.08,0.235 -0.08,0.385l-0,4.235c-0,0.153 0.026,0.284 0.08,0.391c0.053,0.107 0.132,0.189 0.235,0.246c0.103,0.058 0.228,0.087 0.373,0.087Z" style="fill-rule:nonzero;"/></g></svg>