<?xml version="1.0" encoding="UTF-8" standalone="no"?><!DOCTYPE svg PUBLIC "-//W3C//DTD SVG 1.1//EN" "http://www.w3.org/Graphics/SVG/1.1/DTD/svg11.dtd"><svg width="100%" height="100%" viewBox="0 0 72 72" version="1.1" xmlns="http://www.w3.org/2000/svg" xmlns:xlink="http://www.w3.org/1999/xlink" xml:space="preserve" xmlns:serif="http://www.serif.com/" style="fill-rule:evenodd;clip-rule:evenodd;stroke-linejoin:round;stroke-miterlimit:2;"><path d="M72,18c0,-9.934 -8.066,-18 -18,-18l-36,0c-9.934,0 -18,8.066 -18,18l0,36c0,9.934 8.066,18 18,18l36,0c9.934,0 18,-8.066 18,-18l0,-36Zm-36.002,-8.587l0.004,0l-0.008,0l0.004,0c-7.214,0 -8.121,0.032 -10.955,0.161c-2.83,0.129 -4.761,0.577 -6.451,1.235c-1.748,0.679 -3.231,1.587 -4.709,3.066c-1.478,1.478 -2.386,2.961 -3.067,4.709c-0.659,1.691 -1.108,3.624 -1.235,6.453c-0.127,2.836 -0.16,3.742 -0.16,10.963c-0,7.221 0.032,8.124 0.16,10.96c0.13,2.83 0.578,4.762 1.235,6.453c0.68,1.748 1.588,3.232 3.066,4.709c1.476,1.479 2.959,2.39 4.706,3.069c1.692,0.658 3.624,1.106 6.453,1.235c2.835,0.129 3.74,0.161 10.958,0.161c7.219,-0 8.122,-0.032 10.958,-0.161c2.829,-0.129 4.763,-0.577 6.454,-1.235c1.748,-0.679 3.228,-1.59 4.705,-3.069c1.479,-1.477 2.387,-2.961 3.068,-4.709c0.653,-1.691 1.102,-3.623 1.235,-6.453c0.127,-2.835 0.16,-3.739 0.16,-10.96c0,-7.221 -0.033,-8.127 -0.16,-10.963c-0.133,-2.83 -0.582,-4.762 -1.235,-6.453c-0.681,-1.748 -1.589,-3.231 -3.068,-4.709c-1.478,-1.479 -2.957,-2.388 -4.707,-3.066c-1.694,-0.658 -3.627,-1.106 -6.456,-1.235c-2.835,-0.129 -3.738,-0.161 -10.955,-0.161Zm-2.38,4.791c0.708,-0.001 1.497,0 2.384,0c7.097,0 7.938,0.026 10.741,0.153c2.591,0.119 3.998,0.552 4.935,0.916c1.24,0.482 2.125,1.058 3.054,1.988c0.931,0.931 1.506,1.817 1.989,3.058c0.364,0.936 0.798,2.343 0.916,4.935c0.127,2.803 0.155,3.645 0.155,10.74c-0,7.095 -0.028,7.937 -0.155,10.74c-0.119,2.592 -0.552,3.999 -0.916,4.935c-0.481,1.241 -1.058,2.124 -1.989,3.054c-0.93,0.931 -1.813,1.507 -3.054,1.989c-0.936,0.365 -2.344,0.797 -4.935,0.916c-2.802,0.127 -3.644,0.155 -10.741,0.155c-7.097,-0 -7.938,-0.028 -10.74,-0.155c-2.591,-0.12 -3.998,-0.553 -4.935,-0.917c-1.241,-0.482 -2.127,-1.058 -3.057,-1.988c-0.93,-0.931 -1.506,-1.815 -1.989,-3.056c-0.364,-0.936 -0.797,-2.343 -0.915,-4.935c-0.128,-2.803 -0.153,-3.645 -0.153,-10.745c-0,-7.1 0.025,-7.937 0.153,-10.74c0.118,-2.592 0.551,-3.999 0.915,-4.936c0.482,-1.241 1.059,-2.127 1.989,-3.058c0.93,-0.93 1.816,-1.506 3.057,-1.989c0.937,-0.366 2.344,-0.798 4.935,-0.917c2.452,-0.111 3.402,-0.144 8.356,-0.149l0,0.006Zm16.032,21.796c0,-7.54 -6.11,-13.653 -13.648,-13.653c-7.538,-0 -13.649,6.113 -13.649,13.653c-0,7.54 6.111,13.651 13.649,13.651c7.539,-0 13.648,-6.111 13.648,-13.651Zm-13.648,-8.862c4.893,-0 8.86,3.967 8.86,8.862c0,4.894 -3.967,8.862 -8.86,8.862c-4.893,0 -8.859,-3.968 -8.859,-8.862c-0,-4.895 3.966,-8.862 8.859,-8.862Zm14.097,-8.476c-1.761,0 -3.19,1.428 -3.19,3.19c0,1.761 1.429,3.19 3.19,3.19c1.761,0 3.189,-1.429 3.189,-3.19c0,-1.762 -1.428,-3.191 -3.189,-3.191l-0,0.001Z"/></svg>