<?xml version="1.0" encoding="UTF-8" standalone="no"?><!DOCTYPE svg PUBLIC "-//W3C//DTD SVG 1.1//EN" "http://www.w3.org/Graphics/SVG/1.1/DTD/svg11.dtd"><svg width="100%" height="100%" viewBox="0 0 72 72" version="1.1" xmlns="http://www.w3.org/2000/svg" xmlns:xlink="http://www.w3.org/1999/xlink" xml:space="preserve" xmlns:serif="http://www.serif.com/" style="fill-rule:evenodd;clip-rule:evenodd;stroke-linejoin:round;stroke-miterlimit:2;"><path d="M5.371,63.753l-0.237,1.737c-0.107,0.856 0.595,1.609 1.504,1.609l58.721,-0c0.912,-0 1.614,-0.753 1.51,-1.609l-0.244,-1.737c-0.146,-1.353 0.88,-2.59 2.283,-2.73c1.413,-0.147 2.659,0.843 2.806,2.193l0.227,1.69c0.458,3.776 -1.77,7.094 -5.738,7.094l-60.406,0c-3.968,0 -6.196,-3.314 -5.738,-7.094l0.227,-1.69c0.15,-1.35 1.393,-2.34 2.799,-2.193c1.406,0.143 2.429,1.377 2.286,2.73" style="fill:#d60510;fill-rule:nonzero;"/><g><path d="M59.654,47.362c2.857,0.006 5.133,-2.075 5.075,-4.816c-0.058,-2.805 -2.611,-4.617 -5.458,-4.62l-5.748,-0c-1.273,-0 -2.318,-1.059 -2.318,-2.384c-0,-1.328 1.042,-2.39 2.318,-2.39l3.841,0c2.588,-0.104 4.585,-1.672 4.709,-4.12c0.13,-2.621 -2.124,-4.589 -4.881,-4.589l-9.319,0l-0.039,22.922l11.82,-0l-0,-0.003Zm7.065,-18.347c0,2.39 -0.847,3.744 -2.25,5.41l-0.139,0.169l0.194,0.12c2.777,1.692 4.715,4.251 4.858,7.842c0.214,5.351 -4.319,9.777 -9.702,9.767l-14.19,0c-1.38,0 -2.497,-1.149 -2.497,-2.562l-0,-27.522c-0,-1.419 1.117,-2.562 2.49,-2.562l11.716,0.032c5.108,0.003 9.52,3.757 9.52,9.306" style="fill-rule:nonzero;"/><path d="M20.984,42.887l0.065,0.195l0.071,-0.195c0.659,-1.812 1.451,-3.818 2.293,-6.007c0.866,-2.302 1.73,-4.504 2.594,-6.601c0.873,-2.131 1.698,-4.03 2.487,-5.686c0.786,-1.692 1.439,-2.854 1.942,-3.491c0.776,-0.929 1.802,-1.396 3.078,-1.396l0.588,-0c0.783,-0 1.393,0.204 1.851,0.594c0.419,0.367 0.669,0.789 0.74,1.273l3.666,28.438c0,0.734 -0.211,1.299 -0.626,1.721c-0.416,0.393 -1.01,0.588 -1.786,0.588c-0.776,0 -1.393,-0.185 -1.845,-0.545c-0.5,-0.361 -0.786,-0.835 -0.857,-1.423c-0.123,-0.945 -0.237,-1.997 -0.351,-3.149c-0.162,-1.15 -0.733,-6.112 -0.896,-7.362c-0.149,-1.289 -1.182,-9.322 -1.533,-12.241l-0.032,-0.247l-1.175,2.464c-0.4,0.848 -0.832,1.868 -1.306,3.053c-0.467,1.185 -0.948,2.438 -1.419,3.76c-0.513,1.283 -2.783,7.77 -2.783,7.77c-0.211,0.588 -0.61,1.773 -0.97,2.864c-0.367,1.085 -0.702,2.065 -0.793,2.254c-0.539,1.071 -1.591,1.779 -2.929,1.789c-1.354,-0.007 -2.406,-0.718 -2.938,-1.789c-0.098,-0.189 -0.432,-1.172 -0.799,-2.254c-0.367,-1.091 -0.757,-2.276 -0.977,-2.864c-0,0 -2.27,-6.487 -2.777,-7.77c-0.474,-1.322 -0.948,-2.572 -1.422,-3.76c-0.474,-1.185 -0.906,-2.205 -1.296,-3.053l-1.182,-2.464l-0.026,0.247c-0.357,2.919 -1.38,10.952 -1.535,12.241c-0.163,1.25 -0.734,6.212 -0.89,7.362c-0.12,1.152 -0.237,2.204 -0.361,3.149c-0.071,0.588 -0.357,1.062 -0.85,1.423c-0.458,0.36 -1.072,0.545 -1.851,0.545c-0.776,0 -1.364,-0.195 -1.78,-0.588c-0.415,-0.422 -0.626,-0.993 -0.63,-1.721l3.666,-28.438c0.082,-0.484 0.325,-0.906 0.744,-1.273c0.455,-0.39 1.075,-0.594 1.844,-0.594l0.595,-0c1.279,-0 2.302,0.471 3.075,1.396c0.506,0.637 1.152,1.796 1.941,3.491c0.793,1.656 1.617,3.555 2.488,5.686c0.863,2.097 1.73,4.299 2.601,6.601c0.834,2.189 1.626,4.195 2.286,6.007" style="fill-rule:nonzero;"/></g><path d="M14.007,0l44.165,0c4.16,0 6.231,3.012 6.716,6.981l0.187,1.27c0.148,1.363 -0.891,2.584 -2.28,2.727c-1.392,0.142 -2.643,-0.843 -2.787,-2.206l-0.177,-1.215c-0.187,-1.509 -0.849,-2.671 -2.441,-2.671l-42.602,0c-1.591,0 -2.254,1.162 -2.44,2.671l-0.171,1.215c-0.144,1.363 -1.392,2.351 -2.794,2.206c-1.392,-0.143 -2.43,-1.364 -2.279,-2.727l0.186,-1.27c0.492,-3.972 2.559,-6.981 6.717,-6.981" style="fill:#d60510;fill-rule:nonzero;"/></svg>