<svg class="img-fluid" id="outputsvg" xmlns="http://www.w3.org/2000/svg" style="transform: none; transform-origin: 50% 50%; cursor: move; max-height: 350.08px;" width="664" height="76" viewBox="0 0 6640 760"><g id="l1Sd23wJUg1vrm8j7bhB3Cz" fill="rgb(0,0,0)" style="transform: none;"><g style="transform: none;"><path id="pJdyzsrYh" d="M210 360 l0 -310 90 0 90 0 0 40 0 40 40 0 40 0 0 40 0 40 70 0 70 0 0 -40 0 -40 40 0 40 0 0 -40 0 -40 90 0 90 0 0 40 0 40 40 0 40 0 0 -40 0 -40 170 0 170 0 0 40 0 40 40 0 40 0 0 230 0 230 -40 0 -40 0 0 40 0 40 -170 0 -170 0 0 -40 0 -40 -40 0 -40 0 0 40 0 40 -90 0 -90 0 0 -160 0 -160 -30 0 c-28 0 -30 2 -30 40 l0 40 -90 0 -90 0 0 -40 c0 -38 -2 -40 -30 -40 l-30 0 0 160 0 160 -90 0 -90 0 0 -310z m980 0 l0 -170 -70 0 -70 0 0 170 0 170 70 0 70 0 0 -170z"></path><path id="p1Cx09N4fV" d="M1390 360 l0 -310 90 0 90 0 0 40 0 40 40 0 40 0 0 40 0 40 70 0 70 0 0 -40 0 -40 40 0 40 0 0 -40 0 -40 90 0 90 0 0 310 0 310 -90 0 -90 0 0 -160 0 -160 -30 0 c-28 0 -30 2 -30 40 l0 40 -90 0 -90 0 0 -40 c0 -38 -2 -40 -30 -40 l-30 0 0 160 0 160 -90 0 -90 0 0 -310z"></path><path id="pK91sTZi3" d="M2070 360 l0 -310 250 0 250 0 0 70 0 70 -160 0 -160 0 0 50 0 50 120 0 120 0 0 70 0 70 -120 0 -120 0 0 50 0 50 160 0 160 0 0 70 0 70 -250 0 -250 0 0 -310z"></path><path id="pTGBa7oV0" d="M2590 360 l0 -310 90 0 90 0 0 40 0 40 40 0 40 0 0 40 0 40 40 0 40 0 0 40 c0 38 2 40 30 40 l30 0 0 -120 0 -120 90 0 90 0 0 310 0 310 -90 0 -90 0 0 -80 0 -80 -40 0 -40 0 0 -40 0 -40 -40 0 -40 0 0 -40 c0 -38 -2 -40 -30 -40 l-30 0 0 160 0 160 -90 0 -90 0 0 -310z"></path><path id="pkeeb6W8U" d="M3350 430 l0 -240 -80 0 -80 0 0 -70 0 -70 250 0 250 0 0 70 0 70 -80 0 -80 0 0 240 0 240 -90 0 -90 0 0 -240z"></path><path id="pnVQbIUdb" d="M3790 630 l0 -40 -40 0 -40 0 0 -270 0 -270 90 0 90 0 0 240 0 240 70 0 70 0 0 -240 0 -240 90 0 90 0 0 270 0 270 -40 0 -40 0 0 40 0 40 -170 0 -170 0 0 -40z"></path><path id="pA7Jm4cgU" d="M4230 360 l0 -310 90 0 90 0 0 40 0 40 40 0 40 0 0 40 0 40 70 0 70 0 0 -40 0 -40 40 0 40 0 0 -40 0 -40 90 0 90 0 0 310 0 310 -90 0 -90 0 0 -160 0 -160 -30 0 c-28 0 -30 2 -30 40 l0 40 -90 0 -90 0 0 -40 c0 -38 -2 -40 -30 -40 l-30 0 0 160 0 160 -90 0 -90 0 0 -310z"></path><path id="psuIX8ITR" d="M4990 590 l0 -80 -40 0 -40 0 0 -70 0 -70 40 0 c22 0 40 -4 40 -10 0 -5 -18 -10 -40 -10 l-40 0 0 -70 0 -70 40 0 40 0 0 -80 0 -80 170 0 170 0 0 80 0 80 40 0 40 0 0 70 0 70 -40 0 c-22 0 -40 5 -40 10 0 6 18 10 40 10 l40 0 0 70 0 70 -40 0 -40 0 0 80 0 80 -170 0 -170 0 0 -80z"></path><path id="pxIuMwRJs" d="M5510 630 l0 -40 -40 0 -40 0 0 -230 0 -230 40 0 40 0 0 -40 0 -40 170 0 170 0 0 40 0 40 40 0 40 0 0 230 0 230 -40 0 -40 0 0 40 0 40 -170 0 -170 0 0 -40z m240 -270 l0 -170 -70 0 -70 0 0 170 0 170 70 0 70 0 0 -170z"></path><path id="pCZdcpOf1" d="M6030 630 l0 -40 -40 0 -40 0 0 -110 0 -110 40 0 c22 0 40 -4 40 -10 0 -5 -18 -10 -40 -10 l-40 0 0 -110 0 -110 40 0 40 0 0 -40 0 -40 170 0 170 0 0 40 0 40 40 0 40 0 0 110 0 110 -40 0 c-22 0 -40 5 -40 10 0 6 18 10 40 10 l40 0 0 110 0 110 -40 0 -40 0 0 40 0 40 -170 0 -170 0 0 -40z m240 -150 l0 -50 -70 0 -70 0 0 50 0 50 70 0 70 0 0 -50z m0 -240 l0 -50 -70 0 -70 0 0 50 0 50 70 0 70 0 0 -50z"></path></g></g><g id="l5c2jnQXQ3u1XjzRFXG3MKN" fill="rgb(255,255,255)" style="transform: none;"><g style="transform: none;"><path id="p5Se6YAbN" d="M0 380 l0 -380 3320 0 3320 0 0 380 0 380 -3320 0 -3320 0 0 -380z m360 60 c0 -193 1 -200 20 -200 17 0 20 7 20 40 l0 40 40 0 40 0 0 40 0 40 60 0 60 0 0 -40 0 -40 40 0 40 0 0 -40 c0 -33 3 -40 20 -40 19 0 20 7 20 200 l0 200 60 0 60 0 0 -280 0 -280 -60 0 -60 0 0 40 0 40 -40 0 -40 0 0 40 0 40 -40 0 -40 0 0 40 c0 33 -3 40 -20 40 -17 0 -20 -7 -20 -40 l0 -40 -40 0 -40 0 0 -40 0 -40 -40 0 -40 0 0 -40 0 -40 -60 0 -60 0 0 280 0 280 60 0 60 0 0 -200z m900 160 l0 -40 40 0 40 0 0 -200 0 -200 -40 0 -40 0 0 -40 0 -40 -140 0 -140 0 0 40 0 40 -40 0 -40 0 0 200 0 200 40 0 40 0 0 40 0 40 140 0 140 0 0 -40z m280 -160 c0 -193 1 -200 20 -200 17 0 20 7 20 40 l0 40 40 0 40 0 0 40 0 40 60 0 60 0 0 -40 0 -40 40 0 40 0 0 -40 c0 -33 3 -40 20 -40 19 0 20 7 20 200 l0 200 60 0 60 0 0 -280 0 -280 -60 0 -60 0 0 40 0 40 -40 0 -40 0 0 40 0 40 -40 0 -40 0 0 40 c0 33 -3 40 -20 40 -17 0 -20 -7 -20 -40 l0 -40 -40 0 -40 0 0 -40 0 -40 -40 0 -40 0 0 -40 0 -40 -60 0 -60 0 0 280 0 280 60 0 60 0 0 -200z m1000 160 l0 -40 -160 0 -160 0 0 -80 0 -80 120 0 120 0 0 -40 0 -40 -120 0 -120 0 0 -80 0 -80 160 0 160 0 0 -40 0 -40 -220 0 -220 0 0 280 0 280 220 0 220 0 0 -40z m200 -160 c0 -193 1 -200 20 -200 17 0 20 7 20 40 l0 40 40 0 40 0 0 40 0 40 40 0 40 0 0 40 0 40 40 0 40 0 0 80 0 80 60 0 60 0 0 -280 0 -280 -60 0 -60 0 0 160 c0 153 -1 160 -20 160 -17 0 -20 -7 -20 -40 l0 -40 -40 0 -40 0 0 -40 0 -40 -40 0 -40 0 0 -40 0 -40 -40 0 -40 0 0 -40 0 -40 -60 0 -60 0 0 280 0 280 60 0 60 0 0 -200z m760 -40 l0 -240 80 0 80 0 0 -40 0 -40 -220 0 -220 0 0 40 0 40 80 0 80 0 0 240 0 240 60 0 60 0 0 -240z m600 200 l0 -40 40 0 40 0 0 -240 0 -240 -60 0 -60 0 0 240 0 240 -100 0 -100 0 0 -240 0 -240 -60 0 -60 0 0 240 0 240 40 0 40 0 0 40 0 40 140 0 140 0 0 -40z m280 -160 c0 -193 1 -200 20 -200 17 0 20 7 20 40 l0 40 40 0 40 0 0 40 0 40 60 0 60 0 0 -40 0 -40 40 0 40 0 0 -40 c0 -33 3 -40 20 -40 19 0 20 7 20 200 l0 200 60 0 60 0 0 -280 0 -280 -60 0 -60 0 0 40 0 40 -40 0 -40 0 0 40 0 40 -40 0 -40 0 0 40 c0 33 -3 40 -20 40 -17 0 -20 -7 -20 -40 l0 -40 -40 0 -40 0 0 -40 0 -40 -40 0 -40 0 0 -40 0 -40 -60 0 -60 0 0 280 0 280 60 0 60 0 0 -200z m760 120 c0 -73 2 -80 20 -80 18 0 20 7 20 80 l0 80 60 0 60 0 0 -80 0 -80 40 0 40 0 0 -40 0 -40 -40 0 -40 0 0 -40 0 -40 40 0 40 0 0 -40 0 -40 -40 0 -40 0 0 -80 0 -80 -60 0 -60 0 0 80 c0 73 -2 80 -20 80 -18 0 -20 -7 -20 -80 l0 -80 -60 0 -60 0 0 80 0 80 -40 0 -40 0 0 40 0 40 40 0 40 0 0 40 0 40 -40 0 -40 0 0 40 0 40 40 0 40 0 0 80 0 80 60 0 60 0 0 -80z m680 40 l0 -40 40 0 40 0 0 -200 0 -200 -40 0 -40 0 0 -40 0 -40 -140 0 -140 0 0 40 0 40 -40 0 -40 0 0 200 0 200 40 0 40 0 0 40 0 40 140 0 140 0 0 -40z m520 0 l0 -40 40 0 40 0 0 -80 0 -80 -40 0 -40 0 0 -40 0 -40 40 0 40 0 0 -80 0 -80 -40 0 -40 0 0 -40 0 -40 -140 0 -140 0 0 40 0 40 -40 0 -40 0 0 80 0 80 40 0 40 0 0 40 0 40 -40 0 -40 0 0 80 0 80 40 0 40 0 0 40 0 40 140 0 140 0 0 -40z"></path><path id="pMexGq51K" d="M1020 360 l0 -200 100 0 100 0 0 200 0 200 -100 0 -100 0 0 -200z"></path><path id="p168g6Iqr6" d="M5140 360 c0 -33 3 -40 20 -40 17 0 20 7 20 40 0 33 -3 40 -20 40 -17 0 -20 -7 -20 -40z"></path><path id="pyRa3aOaU" d="M5580 360 l0 -200 100 0 100 0 0 200 0 200 -100 0 -100 0 0 -200z"></path><path id="pe20zpMa2" d="M6100 480 l0 -80 100 0 100 0 0 80 0 80 -100 0 -100 0 0 -80z"></path><path id="p10UYhWZpb" d="M6100 240 l0 -80 100 0 100 0 0 80 0 80 -100 0 -100 0 0 -80z"></path></g></g></svg>