<?xml version="1.0" encoding="UTF-8" standalone="no"?><!DOCTYPE svg PUBLIC "-//W3C//DTD SVG 1.1//EN" "http://www.w3.org/Graphics/SVG/1.1/DTD/svg11.dtd"><svg width="100%" height="100%" viewBox="0 0 89 72" version="1.1" xmlns="http://www.w3.org/2000/svg" xmlns:xlink="http://www.w3.org/1999/xlink" xml:space="preserve" xmlns:serif="http://www.serif.com/" style="fill-rule:evenodd;clip-rule:evenodd;stroke-linejoin:round;stroke-miterlimit:2;"><path d="M79.537,17.924c0.054,0.781 0.054,1.563 0.054,2.351c-0,24.021 -18.287,51.725 -51.725,51.725l-0,-0.014c-9.878,0.014 -19.551,-2.815 -27.866,-8.15c1.436,0.173 2.88,0.259 4.327,0.262c8.186,0.008 16.138,-2.739 22.578,-7.797c-7.779,-0.147 -14.601,-5.219 -16.984,-12.624c2.725,0.526 5.533,0.418 8.207,-0.313c-8.481,-1.714 -14.582,-9.165 -14.582,-17.819l-0,-0.23c2.527,1.407 5.356,2.188 8.25,2.275c-7.987,-5.339 -10.45,-15.965 -5.626,-24.274c9.23,11.358 22.848,18.262 37.466,18.993c-1.465,-6.314 0.537,-12.931 5.26,-17.369c7.322,-6.883 18.837,-6.53 25.72,0.788c4.071,-0.803 7.974,-2.296 11.545,-4.413c-1.358,4.208 -4.198,7.783 -7.992,10.054c3.603,-0.425 7.124,-1.389 10.439,-2.862c-2.44,3.658 -5.514,6.843 -9.071,9.417Z" style="fill:#1d9bf0;fill-rule:nonzero;"/></svg>